<svg xmlns="http://www.w3.org/2000/svg" xmlns:xlink="http://www.w3.org/1999/xlink" width="24" height="24" viewBox="0 0 24 24">
  <defs>
    <clipPath id="clip-path">
      <rect id="Rectangle_4013" data-name="Rectangle 4013" width="24" height="24" transform="translate(-11067 -3043)" fill="none" stroke="#fff" stroke-width="1"/>
    </clipPath>
  </defs>
  <g id="Loyalty_Program_1" data-name="Loyalty Program 1" transform="translate(11067 3043)" clip-path="url(#clip-path)">
    <g id="crown" transform="translate(-11065.977 -3044.967)">
      <path id="Path_8264" data-name="Path 8264" d="M19.345,11.114,17.8,17.951a.629.629,0,0,1-.629.5H5.117a.629.629,0,0,1-.629-.5l-1.5-6.837a.629.629,0,0,1,.893-.7L7.558,12.2,10.6,6.812a.629.629,0,0,1,1.094,0l3.044,5.39,3.7-1.793a.629.629,0,0,1,.906.7Z" fill="none" stroke="#ffc400" stroke-linecap="round" stroke-linejoin="round" stroke-width="1.6"/>
    </g>
    <line id="Line_819" data-name="Line 819" x2="13" transform="translate(-11061.5 -3023.5)" fill="none" stroke="#ffc400" stroke-linecap="round" stroke-width="1.6"/>
  </g>
</svg>
