<svg xmlns="http://www.w3.org/2000/svg" xmlns:xlink="http://www.w3.org/1999/xlink" width="18.523" height="18.523" viewBox="0 0 18.523 18.523">
  <defs>
    <clipPath id="clip-path">
      <rect id="Rectangle_3478" data-name="Rectangle 3478" width="18.523" height="18.523" transform="translate(0 0)" fill="none" stroke="#707070" stroke-width="1"/>
    </clipPath>
  </defs>
  <g id="Mask_Group_4682" data-name="Mask Group 4682" transform="translate(0 0)" clip-path="url(#clip-path)">
    <g id="Group_7264" data-name="Group 7264" transform="translate(3.286 1.482)">
      <g id="Group_7263" data-name="Group 7263" transform="translate(0 0)">
        <g id="Group_7261" data-name="Group 7261">
          <path id="Path_8085" data-name="Path 8085" d="M8.306,1H2.116A1.116,1.116,0,0,0,1,2.116v13a1.116,1.116,0,0,0,1.116,1.116h9.927a1.116,1.116,0,0,0,1.116-1.116V6.1Z" transform="translate(-1 -1)" fill="none" stroke="#231f20" stroke-width="1.5"/>
          <path id="Path_8086" data-name="Path 8086" d="M25.244,6.1h-3.55a1.3,1.3,0,0,1-1.3-1.3V1" transform="translate(-13.085 -1)" fill="none" stroke="#231f20" stroke-width="1.5"/>
        </g>
        <g id="Group_7262" data-name="Group 7262" transform="translate(3.193 7.616)">
          <line id="Line_660" data-name="Line 660" y2="2.887" transform="translate(2.887 2.887)" fill="none" stroke="#000" stroke-width="1.5"/>
          <line id="Line_661" data-name="Line 661" y2="1.649" transform="translate(2.887)" fill="none" stroke="#0a64f9" stroke-width="1.5"/>
          <line id="Line_662" data-name="Line 662" y2="5.773" transform="translate(5.773 2.887) rotate(90)" fill="none" stroke="#000" stroke-width="1.5"/>
        </g>
      </g>
    </g>
  </g>
</svg>
