<svg xmlns="http://www.w3.org/2000/svg" width="104" height="104" viewBox="0 0 104 104">
  <g id="Group_6017" data-name="Group 6017" transform="translate(-908 -401)">
    <circle id="Ellipse_329" data-name="Ellipse 329" cx="52" cy="52" r="52" transform="translate(908 401)" fill="#e8f1ff"/>
    <g id="Inventory_1_" transform="translate(913.718 392.487)">
      <path id="Path_13" data-name="Path 13" d="M77.818,49.377a4.455,4.455,0,0,1-4.455,4.455H64.455A4.455,4.455,0,0,1,60,49.377V40.468a4.455,4.455,0,0,1,4.455-4.455h8.909a4.455,4.455,0,0,1,4.455,4.455Z" transform="translate(-35.545)" fill="none" stroke="#0a64f9" stroke-linecap="round" stroke-linejoin="round" stroke-width="3.5"/>
      <line id="Line_13" data-name="Line 13" y2="4.455" transform="translate(33.364 36.013)" fill="none" stroke="#0a64f9" stroke-linecap="round" stroke-linejoin="round" stroke-width="3.5"/>
      <path id="Path_14" data-name="Path 14" d="M20,200.468a4.455,4.455,0,0,1,4.455-4.455h4.455" transform="translate(0 -142.182)" fill="none" stroke="#0a64f9" stroke-linecap="round" stroke-linejoin="round" stroke-width="3.5"/>
      <path id="Path_15" data-name="Path 15" d="M285.147,196.013h18.581a4.455,4.455,0,0,1,4.455,4.455" transform="translate(-235.619 -142.182)" fill="none" stroke="#0a64f9" stroke-linecap="round" stroke-linejoin="round" stroke-width="3.5"/>
      <path id="Path_16" data-name="Path 16" d="M296.455,293.831A4.455,4.455,0,0,1,292,289.377v-8.909a4.455,4.455,0,0,1,4.455-4.455h8.909a4.455,4.455,0,0,1,4.455,4.455v8.909a4.455,4.455,0,0,1-4.455,4.455" transform="translate(-241.709 -213.273)" fill="none" stroke="#0a64f9" stroke-linecap="round" stroke-linejoin="round" stroke-width="3.5"/>
      <line id="Line_14" data-name="Line 14" y2="4.455" transform="translate(59.2 62.74)" fill="none" stroke="#0a64f9" stroke-linecap="round" stroke-linejoin="round" stroke-width="3.5"/>
      <path id="Path_17" data-name="Path 17" d="M20,440.468a4.455,4.455,0,0,1,4.455-4.455H68.109a4.455,4.455,0,0,1,4.455,4.455" transform="translate(0 -355.455)" fill="none" stroke="#0a64f9" stroke-linecap="round" stroke-linejoin="round" stroke-width="3.5"/>
      <path id="Path_19" data-name="Path 19" d="M80.027,80.026" transform="translate(-16.372 -35.104)" fill="none" stroke="#0a64f9" stroke-linecap="round" stroke-width="3.5"/>
      <path id="Path_18" data-name="Path 18" d="M83,274.488l4.291,4.143,9.952-9.952" transform="translate(-55.984 -206.755)" fill="none" stroke="#0a64f9" stroke-linecap="round" stroke-width="3.5"/>
      <path id="Path_20" data-name="Path 20" d="M83,274.488l4.291,4.143,9.952-9.952" transform="translate(-30.922 -230.438)" fill="none" stroke="#0a64f9" stroke-linecap="round" stroke-width="3.5"/>
    </g>
  </g>
</svg>
