<svg xmlns="http://www.w3.org/2000/svg" width="104" height="104" viewBox="0 0 104 104">
  <g id="Group_6017" data-name="Group 6017" transform="translate(-908 -401)">
    <circle id="Ellipse_329" data-name="Ellipse 329" cx="52" cy="52" r="52" transform="translate(908 401)" fill="#e8f1ff"/>
    <g id="Inventory_1_" transform="translate(912.718 394.487)">
      <path id="Path_19" data-name="Path 19" d="M80.027,80.026" transform="translate(-15.372 -32.104)" fill="none" stroke="#0a64f9" stroke-linecap="round" stroke-width="3.5"/>
      <line id="Line_15" data-name="Line 15" x2="19" transform="translate(53.078 61.9)" fill="none" stroke="#0a64f9" stroke-linecap="round" stroke-width="3.5"/>
      <line id="Line_21" data-name="Line 21" x2="19" transform="translate(23.26 39.922)" fill="none" stroke="#0a64f9" stroke-linecap="round" stroke-width="3.5"/>
      <line id="Line_16" data-name="Line 16" x2="19" transform="translate(53.078 77.9)" fill="none" stroke="#0a64f9" stroke-linecap="round" stroke-width="3.5"/>
      <line id="Line_22" data-name="Line 22" x2="19" transform="translate(23.26 55.922)" fill="none" stroke="#0a64f9" stroke-linecap="round" stroke-width="3.5"/>
      <line id="Line_17" data-name="Line 17" x2="19" transform="translate(53.078 69.9)" fill="none" stroke="#0a64f9" stroke-linecap="round" stroke-width="3.5"/>
      <line id="Line_23" data-name="Line 23" x2="19" transform="translate(23.26 47.922)" fill="none" stroke="#0a64f9" stroke-linecap="round" stroke-width="3.5"/>
      <line id="Line_18" data-name="Line 18" y2="6" transform="translate(66.078 66.9)" fill="none" stroke="#0a64f9" stroke-linecap="round" stroke-width="3.5"/>
      <line id="Line_24" data-name="Line 24" y2="6" transform="translate(36.26 44.922)" fill="none" stroke="#0a64f9" stroke-linecap="round" stroke-width="3.5"/>
      <line id="Line_19" data-name="Line 19" y2="6" transform="translate(59.078 58.9)" fill="none" stroke="#0a64f9" stroke-linecap="round" stroke-width="3.5"/>
      <line id="Line_25" data-name="Line 25" y2="6" transform="translate(29.26 36.922)" fill="none" stroke="#0a64f9" stroke-linecap="round" stroke-width="3.5"/>
      <line id="Line_20" data-name="Line 20" y2="6" transform="translate(59.078 74.9)" fill="none" stroke="#0a64f9" stroke-linecap="round" stroke-width="3.5"/>
      <line id="Line_26" data-name="Line 26" y2="6" transform="translate(29.26 52.922)" fill="none" stroke="#0a64f9" stroke-linecap="round" stroke-width="3.5"/>
      <path id="Path_21" data-name="Path 21" d="M426.369,337.823a8.146,8.146,0,0,1-7.754,13.688" transform="translate(486.2 -239.077) rotate(106)" fill="none" stroke="#0a64f9" stroke-linecap="round" stroke-linejoin="round" stroke-width="3.5"/>
      <path id="Path_23" data-name="Path 23" d="M426.369,337.823a8.146,8.146,0,0,1-7.754,13.688" transform="translate(-390.257 358.782) rotate(-74)" fill="none" stroke="#0a64f9" stroke-linecap="round" stroke-linejoin="round" stroke-width="3.5"/>
      <path id="Path_22" data-name="Path 22" d="M420.7,441.606l-2.036,2.036,2.036,2.316" transform="translate(574.796 -213.72) rotate(106)" fill="none" stroke="#0a64f9" stroke-linecap="round" stroke-linejoin="round" stroke-width="3.5"/>
      <path id="Path_24" data-name="Path 24" d="M420.7,441.606l-2.036,2.036,2.036,2.316" transform="translate(-478.853 333.425) rotate(-74)" fill="none" stroke="#0a64f9" stroke-linecap="round" stroke-linejoin="round" stroke-width="3.5"/>
    </g>
  </g>
</svg>
