<svg xmlns="http://www.w3.org/2000/svg" xmlns:xlink="http://www.w3.org/1999/xlink" width="104" height="104" viewBox="0 0 104 104">
  <defs>
    <clipPath id="clip-path">
      <rect id="Rectangle_10" data-name="Rectangle 10" width="59.333" height="56.077" fill="none" stroke="#0a64f9" stroke-width="3.5"/>
    </clipPath>
  </defs>
  <g id="Group_6017" data-name="Group 6017" transform="translate(-908 -401)">
    <circle id="Ellipse_329" data-name="Ellipse 329" cx="52" cy="52" r="52" transform="translate(908 401)" fill="#e8f1ff"/>
    <g id="Group_9" data-name="Group 9" transform="translate(930.333 429.183)">
      <g id="Group_8" data-name="Group 8" clip-path="url(#clip-path)">
        <path id="Path_7" data-name="Path 7" d="M426.369,337.823a8.146,8.146,0,0,1-7.754,13.688" transform="translate(-371.707 -299.968)" fill="none" stroke="#0a64f9" stroke-linecap="round" stroke-linejoin="round" stroke-width="3.5"/>
        <path id="Path_8" data-name="Path 8" d="M366.587,330.878a8.146,8.146,0,0,1,7.759-13.678" transform="translate(-323.36 -281.428)" fill="none" stroke="#0a64f9" stroke-linecap="round" stroke-linejoin="round" stroke-width="3.5"/>
        <path id="Path_9" data-name="Path 9" d="M436.833,298.776l2.036,2.294-2.036,2.036" transform="translate(-387.884 -265.297)" fill="none" stroke="#0a64f9" stroke-linecap="round" stroke-linejoin="round" stroke-width="3.5"/>
        <path id="Path_10" data-name="Path 10" d="M420.7,441.606l-2.036,2.036,2.036,2.316" transform="translate(-371.752 -392.121)" fill="none" stroke="#0a64f9" stroke-linecap="round" stroke-linejoin="round" stroke-width="3.5"/>
        <path id="Path_11" data-name="Path 11" d="M72.276,28.395,70.209,23.91A6.723,6.723,0,0,0,64.1,20H28.787a6.723,6.723,0,0,0-6.106,3.91l-2.067,4.485A6.7,6.7,0,0,0,20,31.206c0,3.713,2.562,6.723,6.275,6.723A6.723,6.723,0,0,0,33,31.206a6.723,6.723,0,1,0,13.447,0,6.723,6.723,0,0,0,13.447,0,6.723,6.723,0,0,0,6.723,6.723c3.713,0,6.275-3.01,6.275-6.723A6.7,6.7,0,0,0,72.276,28.395Z" transform="translate(-17.759 -17.759)" fill="none" stroke="#0a64f9" stroke-linecap="round" stroke-linejoin="round" stroke-width="3.5"/>
        <line id="Line_3" data-name="Line 3" y2="27.276" transform="translate(6.723 19.787)" fill="none" stroke="#0a64f9" stroke-linecap="round" stroke-linejoin="round" stroke-width="3.5"/>
        <line id="Line_4" data-name="Line 4" x2="32.776" transform="translate(2.241 47.063)" fill="none" stroke="#0a64f9" stroke-linecap="round" stroke-linejoin="round" stroke-width="3.5"/>
        <line id="Line_5" data-name="Line 5" y1="8.282" transform="translate(50.649 19.787)" fill="none" stroke="#0a64f9" stroke-linecap="round" stroke-linejoin="round" stroke-width="3.5"/>
        <path id="Path_12" data-name="Path 12" d="M140,277.929V264.482A4.482,4.482,0,0,1,144.482,260h4.482a4.482,4.482,0,0,1,4.482,4.482v13.447" transform="translate(-124.312 -230.866)" fill="none" stroke="#0a64f9" stroke-linecap="round" stroke-linejoin="round" stroke-width="3.5"/>
      </g>
    </g>
  </g>
</svg>
