<svg id="Group_196" data-name="Group 196" xmlns="http://www.w3.org/2000/svg" xmlns:xlink="http://www.w3.org/1999/xlink" width="41.29" height="41.283" viewBox="0 0 41.29 41.283">
  <defs>
    <clipPath id="clip-path">
      <rect id="Rectangle_79" data-name="Rectangle 79" width="41.29" height="41.283" fill="#a7a7a7"/>
    </clipPath>
  </defs>
  <g id="Group_85" data-name="Group 85" transform="translate(0 0)" clip-path="url(#clip-path)">
    <path id="Path_69" data-name="Path 69" d="M17.688,0h13a4.431,4.431,0,0,1,4.709,4.7q0,8.639,0,17.279A1.474,1.474,0,0,1,33.436,23.5a1.426,1.426,0,0,1-.987-1.317c-.016-.214,0-.43,0-.645q0-8.409,0-16.818c0-1.223-.548-1.772-1.767-1.772H4.732c-1.237,0-1.781.536-1.781,1.755q0,12.994,0,25.987A1.525,1.525,0,0,0,4.7,32.438q8.641,0,17.282,0a1.478,1.478,0,1,1,.028,2.946q-3.572,0-7.143,0-5.092,0-10.185,0A4.433,4.433,0,0,1,0,30.7Q0,17.686,0,4.67A4.433,4.433,0,0,1,4.692,0q6.5,0,13,0" transform="translate(0 0)" fill="#a7a7a7"/>
    <path id="Path_70" data-name="Path 70" d="M71.538,124.076H47.968v-.471c0-2.84.005-5.68-.007-8.52a.946.946,0,0,1,.32-.759c.523-.5,1.018-1.023,1.531-1.53a1.455,1.455,0,0,1,2.2-.01c.56.547,1.108,1.107,1.66,1.662s1.08,1.089,1.657,1.67c.133-.127.254-.237.369-.352l7.258-7.267a1.511,1.511,0,0,1,2.464,0q2.93,2.932,5.852,5.873a.887.887,0,0,1,.279.532c.017,2.993.012,5.987.01,8.98a1.756,1.756,0,0,1-.024.2" transform="translate(-42.069 -94.61)" fill="#a7a7a7"/>
    <path id="Path_71" data-name="Path 71" d="M221.988,221.946V219.89c0-.767-.006-1.535,0-2.3a1.473,1.473,0,1,1,2.945-.017c.01,1.274,0,2.548,0,3.822v.553h.8c1.182,0,2.364-.005,3.546,0a1.475,1.475,0,1,1-.006,2.945c-1.426.007-2.851,0-4.34,0v.513c0,1.259,0,2.517,0,3.776a1.479,1.479,0,1,1-2.947.014c0-1.411,0-2.822,0-4.3h-.5c-1.259,0-2.518,0-3.776,0a1.48,1.48,0,1,1,.009-2.947c1.259,0,2.518,0,3.776,0h.494" transform="translate(-189.544 -189.508)" fill="#0a64f9"/>
    <path id="Path_72" data-name="Path 72" d="M85.411,51.723a3.685,3.685,0,1,1-3.68-3.7,3.692,3.692,0,0,1,3.68,3.7" transform="translate(-68.454 -42.123)" fill="#a7a7a7"/>
  </g>
</svg>
