<svg xmlns="http://www.w3.org/2000/svg" xmlns:xlink="http://www.w3.org/1999/xlink" width="38" height="38" viewBox="0 0 38 38">
  <defs>
    <clipPath id="clip-path">
      <rect id="Rectangle_71" data-name="Rectangle 71" width="18" height="18" transform="translate(1133 122)" fill="none" stroke="#707070" stroke-width="1"/>
    </clipPath>
  </defs>
  <g id="Group_7790" data-name="Group 7790" transform="translate(-1236 -377)">
    <g id="Rectangle_4173" data-name="Rectangle 4173" transform="translate(1236 377)" fill="#f9f9f9" stroke="#ebebeb" stroke-width="1">
      <rect width="38" height="38" rx="4" stroke="none"/>
      <rect x="0.5" y="0.5" width="37" height="37" rx="3.5" fill="none"/>
    </g>
    <g id="Mask_Group_20" data-name="Mask Group 20" transform="translate(113 265)" clip-path="url(#clip-path)">
      <g id="Group_4605" data-name="Group 4605" transform="translate(1134.412 123.397)">
        <g id="Group_4602" data-name="Group 4602">
          <path id="Path_3770" data-name="Path 3770" d="M586.655,228H571.5v1.443h1.6v8.9a2.168,2.168,0,0,0,2.165,2.165h7.618a2.167,2.167,0,0,0,2.165-2.165v-8.9h1.6Zm-3.047,10.344a.723.723,0,0,1-.722.722h-7.618a.722.722,0,0,1-.722-.722v-8.9h9.061Z" transform="translate(-571.5 -225.514)" fill="#d82424"/>
          <rect id="Rectangle_1199" data-name="Rectangle 1199" width="6.495" height="1.443" transform="translate(4.33)" fill="#d82424"/>
          <rect id="Rectangle_1200" data-name="Rectangle 1200" width="1.443" height="4.571" transform="translate(5.292 6.335)" fill="#d82424"/>
          <rect id="Rectangle_1201" data-name="Rectangle 1201" width="1.443" height="4.571" transform="translate(8.419 6.335)" fill="#d82424"/>
        </g>
      </g>
    </g>
  </g>
</svg>
