<svg xmlns="http://www.w3.org/2000/svg" width="38" height="38" viewBox="0 0 38 38">
  <g id="Group_7789" data-name="Group 7789" transform="translate(-1184 -377)">
    <g id="Rectangle_4175" data-name="Rectangle 4175" transform="translate(1184 377)" fill="#f9f9f9" stroke="#ebebeb" stroke-width="1">
      <rect width="38" height="38" rx="4" stroke="none"/>
      <rect x="0.5" y="0.5" width="37" height="37" rx="3.5" fill="none"/>
    </g>
    <g id="Group_72" data-name="Group 72" transform="translate(1195.854 388.688)">
      <g id="Group_73" data-name="Group 73" transform="translate(-0.001 0)">
        <path id="Path_67" data-name="Path 67" d="M9.9,0a3.03,3.03,0,0,1,2.242,5.16q-1.986,2-3.98,3.982a6.23,6.23,0,0,1-3.42,1.74c-.667.119-1.33.26-1.995.391a.828.828,0,0,1-1.006-1.016c.18-.894.343-1.793.554-2.681A5.417,5.417,0,0,1,3.735,5Q5.812,2.888,7.919.808A2.856,2.856,0,0,1,9.9,0M3.624,9.4c.267-.052.5-.1.742-.142a4.625,4.625,0,0,0,2.6-1.275Q8.946,6,10.931,4.019A1.369,1.369,0,1,0,9,2.078C7.673,3.4,6.36,4.728,5.029,6.041A5.461,5.461,0,0,0,3.624,9.4" transform="translate(-0.346 0)"/>
        <path id="Path_68" data-name="Path 68" d="M7.141,17.894q-3.115,0-6.23,0a.819.819,0,0,1-.88-.607.817.817,0,0,1,.737-1.051c.055,0,.11,0,.166,0q6.22,0,12.44,0a.837.837,0,0,1,.839.493.823.823,0,0,1-.759,1.168c-.969.008-1.938,0-2.907,0H7.141" transform="translate(0.001 -3.271)" fill="#0a64f9"/>
      </g>
    </g>
  </g>
</svg>
