<svg xmlns="http://www.w3.org/2000/svg" width="268.594" height="146.514" viewBox="0 0 268.594 146.514">
  <path id="Path_6999" data-name="Path 6999" d="M-83.469-107.717l-.28-.373q0-.373.466-.56l.187.187Zm-2.891,94.94v-.373q0-.933.373-1.026A5.156,5.156,0,0,1-86.36-12.777Zm-3.078-10.259v-.373a2.934,2.934,0,0,1,.373-1.026A8.528,8.528,0,0,1-89.438-23.036ZM-85.8,12.4h-.093a4.311,4.311,0,0,1-.839-.839q0-.093-.187-.093,0,.093-.14.14a.767.767,0,0,1-.233.047,3.975,3.975,0,0,1-1.4.187,2.233,2.233,0,0,1-1.352-.28,9.288,9.288,0,0,1-1.212-2.192q-.886-1.912-1.819-3.684V5.5a32.846,32.846,0,0,1-1.119-9.7q0-5.969.606-12.171a61.8,61.8,0,0,1,1.073-7.881,3.82,3.82,0,0,0,.56-1.958q.187-1.585.606-1.772T-90.93-29A3.746,3.746,0,0,1-90.7-30.73a3.283,3.283,0,0,0,.42-1.026q.187-.7.466-1.446a40.969,40.969,0,0,1,1.073-4.57q.979-3.637,1.446-4.1,0-.933,2.611-8.767a2.688,2.688,0,0,0,.56-1.306Q-81.6-56.33-81.6-57.636A25.015,25.015,0,0,0-85.241-55.4q-5.875,4.01-8.114,5.409-16.414,10.259-22.01,10.632-4.29,0-5.689-.653a4.906,4.906,0,0,1-2.8-2.518.414.414,0,0,0-.047-.187.149.149,0,0,0-.14-.093h-.093l-.839.746q-.28,0-.466-.42a8.235,8.235,0,0,0-.466-.886,6.052,6.052,0,0,0-1.912-3.124q-1.259-.979-1.446-1.166h-.093v-.187l.373-.28a1.452,1.452,0,0,1,1.306-.56q1.026-.373,3.078-5.969l.933-2.052a29.675,29.675,0,0,1,2.518-5.036q.187,0,.28-.466,0-1.119,2.8-5.036,3.824-5.969,7.461-12.031.28,0,1.679-2.332,2.052-3.078,2.471-3.124a.421.421,0,0,0,.42-.466,1.234,1.234,0,0,1,.187-.7l.093-.187.093-.093a3.042,3.042,0,0,0,.933-1.492q.653-1.119.839-1.119a.537.537,0,0,0,.373-.187.537.537,0,0,0,.187-.373q0-.746,2.145-3.357,6.062-8.394,10.352-14.176,18.093-24.155,21.077-25.833a35.932,35.932,0,0,1,4.383-1.4,1.265,1.265,0,0,1,.933.373,2.329,2.329,0,0,0,1.539.839,1.15,1.15,0,0,1,.979.373q0,.373.56.373h.187a3.145,3.145,0,0,1,1.4.373q1.865,1.026,1.865,1.679l.746,1.958v.373a2.874,2.874,0,0,0-.373,1.166,4.4,4.4,0,0,1-.56,1.539,10.34,10.34,0,0,0-2.332,4.01l-2.8,4.01q-2.7,3.078-15.015,19.212l-2.8,3.637q-9.14,11.938-9.14,12.031a21.647,21.647,0,0,1-2.891,3.824q-2.238,2.984-2.238,3.637a5.637,5.637,0,0,1-.746.606A17.033,17.033,0,0,0-98.3-70.879a23.535,23.535,0,0,1-2.471,3.264.57.57,0,0,0-.326.513,8.227,8.227,0,0,1-1.026,2.1l-.28.56a26.7,26.7,0,0,1-3.637,5.036q7.274-4.29,12.963-8.394l15.108-9.046q8.487-4.663,10.259-6.9a23.4,23.4,0,0,0,2.052-3.357q2.518-4.57,4.29-7.274,5.129-8.021,5.129-8.58a17.678,17.678,0,0,0,1.492-1.912,2.159,2.159,0,0,1,.373-.56.968.968,0,0,0,.28-.466q0-.14,2.611-3.964a16.417,16.417,0,0,1,1.026-1.539q.466-.606.839-1.166.746-1.119.886-1.119t.14-.187a2.558,2.558,0,0,1,.653-1.492.082.082,0,0,0,.093-.093A20.555,20.555,0,0,1-44.579-119a8.1,8.1,0,0,1,2.891-1.119h1.772a.537.537,0,0,1,.187.373l-.466.933,1.772-.373.373.187q.28.466,1.306.466a1.515,1.515,0,0,1,.839.326,5.031,5.031,0,0,0,1.4.606l.28.093a2.081,2.081,0,0,1,.886.606,2.112,2.112,0,0,1,.233,1.166q.373,1.306.56,1.306a1.507,1.507,0,0,1,.839,1.4v.56a4.455,4.455,0,0,0-.466,2.425q0,1.306-3.218,6.3a39.95,39.95,0,0,1-3.591,5.176,8.907,8.907,0,0,0-.746,1.772q-3.637,5.875-3.824,6.435a1.811,1.811,0,0,0,.839,1.4,5.841,5.841,0,0,0,1.772,1.352,4.1,4.1,0,0,0,1.772.513l.746-.187q.093,0,.373.466a1.014,1.014,0,0,1,.373.42.688.688,0,0,0,.653.326.726.726,0,0,1,.466.746q0,.56-.746.746l-.373-.187a3.056,3.056,0,0,0,.466.373.628.628,0,0,1,.28.56.316.316,0,0,0-.093.233.752.752,0,0,1-.093.326q-.093.187-.653.187-1.865,0-8.114,3.637-8.673,5.223-10.072,7.647a8.359,8.359,0,0,0-1.026,2.332q-.466,2.7-3.451,6.249A221.5,221.5,0,0,0-73.117-36.372Q-83.283-11.378-83.283,6.342l-.187.933a1.08,1.08,0,0,1-.746.187h-.093l.187,2.052q0,.933-.373,1.026-.746,0-.746.886T-85.8,12.4ZM-92.7-86.36v-.187a2.934,2.934,0,0,1,.373-1.026q.187-.373,2.052-2.8a2.623,2.623,0,0,0,.839-1.492.541.541,0,0,0-.326-.466,5.1,5.1,0,0,1-.513-.326.566.566,0,0,0-.28-.14,8.543,8.543,0,0,1,2.238-.187l-.187-.373a4.511,4.511,0,0,1,1.119-1.865,1.67,1.67,0,0,0,.466-1.026q0-.466,2.052-3.264a13.027,13.027,0,0,0,1.4-2.145q-.839,0-4.663,5.223l-4.477,6.062a8.056,8.056,0,0,0-1.4,2.518l.187.187.746-.187.187.187a3.952,3.952,0,0,0-.373,1.119.165.165,0,0,0,.187.187Zm9.419-15.854q.653,0,1.492-1.212a2.469,2.469,0,0,0,.373-1.4q-.28,0-1.119.933A5.064,5.064,0,0,0-83.283-102.215Zm3.544-4.383q.373,0,.466-.56a.91.91,0,0,0-.653.187Zm-6.435-3.078q.28,0,2.891-3.171v-.187q-.187,0-.933.7a12.214,12.214,0,0,0-1.352,1.492A2.4,2.4,0,0,0-86.174-109.676Zm-2.332,3.078.746-.933-.187-.187Q-88.505-107.531-88.505-106.6Zm-3.451,4.756.187-.093a2.063,2.063,0,0,0,.653-.839q.653-.933.933-.933a19.317,19.317,0,0,0,1.306-2.518,6.625,6.625,0,0,0-1.026,1.119A15.518,15.518,0,0,0-91.956-101.842Zm-18.093,25.46.373-.187a.453.453,0,0,0,.233-.093.994.994,0,0,1,.513-.093q0-.746.28-.793a1.1,1.1,0,0,0,.42-.14q.14-.093.513-.373a.082.082,0,0,0,.093-.093.76.76,0,0,0-.56-.187l-.187.187-.187-.187.746-.373q.653,0,.7-.746t.14-1.492q-2.8,3.73-2.891,4.383Zm-2.518,4.01a2.548,2.548,0,0,0,1.585-.933.91.91,0,0,0,.187-.653,2.727,2.727,0,0,0-1.119.653,3.654,3.654,0,0,0-.839.746Zm-.093,1.119.093-.187-.373-.187-.746.187A1.7,1.7,0,0,0-112.66-71.252Zm-1.4,1.119.187-.187.187-.56q-.093,0-.093.047a.682.682,0,0,1-.14.233A.755.755,0,0,0-114.059-70.133Zm-1.585,2.891q.466,0,.466-.933a1.8,1.8,0,0,0-.233.326,1.21,1.21,0,0,1-.606.42Q-116.018-67.242-115.645-67.242Zm-2.984,6.155q.56,0,.56-.373-.28-1.4-1.4-1.4,1.026.839,1.026,1.119l-.187.28a.863.863,0,0,1-.933-.653l-.093-.187v.56A1.14,1.14,0,0,0-118.629-61.086Zm-1.585,1.865.373-.56v-.56a.376.376,0,0,0-.373.187,2.45,2.45,0,0,1-.233.373.62.62,0,0,0-.14.373Zm-2.052,9.606q.28,0,.933-.839a.964.964,0,0,1,.933-.56.414.414,0,0,0-.047-.187,2.109,2.109,0,0,0-.187-.28,1.128,1.128,0,0,1-.14-.653,1.96,1.96,0,0,1,.886-.187q.513,0,.7-.653a.756.756,0,0,1,.746-.653q1.119-3.637,1.679-3.637l.373.187-.187-1.026.187-.373h.56q.466,0,.466-.373l-.28-.56a9.141,9.141,0,0,1,.979-2.052q.979-1.772,1.632-1.772t.653-.466l-.093-.187q-.466,0-.466-.28a6.646,6.646,0,0,1,.933-1.772l1.026-.933-.839,1.772a15.171,15.171,0,0,0,1.679-3.078l.373-.653.28-.187v-.093q0-.187.326-.326a2.13,2.13,0,0,0,.653-.466,1.079,1.079,0,0,0,.326-.793,1,1,0,0,0-.56.187l-.187-.466v-.093l.373-.187a1.221,1.221,0,0,0,1.212-.56h-.466l-.187-.373q0-.28.373-.373a1.147,1.147,0,0,0,.466-.187,1,1,0,0,1-.187.56q.28,0,2.611-4.01a3.358,3.358,0,0,0-1.119.933,4.078,4.078,0,0,0,.466-.793,2.049,2.049,0,0,1,.373-.606l.28-.187.373-.373.466-.933.187-.187h.093v.093a.566.566,0,0,1-.14.28,3.043,3.043,0,0,1-.28.326,1.107,1.107,0,0,0-.14.7.414.414,0,0,0,.187-.047.76.76,0,0,0,.233-.28,2.775,2.775,0,0,1,.42-.513,3.008,3.008,0,0,0,.56-1.679l.373.187.373-.187-.373-.746a.649.649,0,0,1,.047-.28q.047-.093.326-.14a.713.713,0,0,0,.373-.14l-.187-.373q0-.373.28-.373t.933-.746a4.186,4.186,0,0,0,.653-1.026l-.187.187-.187-.373a.316.316,0,0,1,.233-.093,2.006,2.006,0,0,0,.373-.047q.233-.047.979-1.026a3,3,0,0,0,.746-1.725,2.529,2.529,0,0,1,1.119-.746l.187-.373-.187-.187-.746.373.093-.28a1.085,1.085,0,0,0,.187-.28q.093-.187.42-.187a2.213,2.213,0,0,0,.513-.047,1.154,1.154,0,0,0,.42-.233.574.574,0,0,0,.233-.466l-.373-.373L-95.78-90l.653-.56.187.187-.187.56q0-.28.933-1.119,3.264-3.824,3.264-5.129a1.474,1.474,0,0,1,.56-.933l-.373.746.187.187.187-.093a3.708,3.708,0,0,0,.933-1.585l.187-.466-.373-.373v-.187l.373.187a.828.828,0,0,0,.373-.093,1.665,1.665,0,0,1,.42-.14q.233-.047.653-.7t.886-1.306l-.187-.187a1.384,1.384,0,0,1-.653.373,11.065,11.065,0,0,1,.839-1.4q.839-1.306,1.306-1.306l-1.119,1.679q.28,0,.979-.886a2.809,2.809,0,0,0,.7-1.725l.187.187q.56,0,.56-.187l-.187-.187a.971.971,0,0,1,.093-.56h.093l.187-.093a1.747,1.747,0,0,1,.187-.933,1.549,1.549,0,0,0,.979-.326q.42-.326.42-.606l.56-.839a.906.906,0,0,0,.187-.466l-.746.373a2.359,2.359,0,0,1,1.119-1.306.667.667,0,0,0,.513-.28.876.876,0,0,0,.233-.56,1.277,1.277,0,0,1,.466-.746h.28l.187-.373a1.452,1.452,0,0,1,.42-1.073,1.576,1.576,0,0,1,1.166-.42l-.187-.839q1.585-1.585,1.585-2.052.373-.56.466-.746a.828.828,0,0,0,.093-.373q-.093,0-.28.28a10.528,10.528,0,0,1-1.306,1.4l-.187-.187a3.4,3.4,0,0,1,.839-1.679q1.865-2.332,1.865-2.891l-.187-.187-.28.373q0,.56-.373.56t-3.637,4.2a37.263,37.263,0,0,1-4.2,4.383l-.933,1.4q-.466,1.492-1.026,1.492a2.451,2.451,0,0,0-.373.233.672.672,0,0,0-.233.466q-.047.326-.793.979-1.026,1.119-1.026,1.4a1.36,1.36,0,0,1-.28.7q-.28.42-2.145,2.565a3.221,3.221,0,0,0-.56.746,1.082,1.082,0,0,1-.653.933l-.373.56a41.481,41.481,0,0,0-2.844,3.917,20.884,20.884,0,0,1-3.4,4.1q-.746.746-.746,1.026a1,1,0,0,1-.187.56,1.868,1.868,0,0,1-1.026.56l-.373-.187A4.151,4.151,0,0,0-99.79-90.93a1.245,1.245,0,0,1,.233-.326,4.624,4.624,0,0,0,.326-.373q.187-.233.28-.233a1.221,1.221,0,0,0,.466-.793q.093-.513.513-.513t.466-.466a3.473,3.473,0,0,1,.979-1.492,22.907,22.907,0,0,0,3.264-4.943q-.187,0-.373.28A6.983,6.983,0,0,0-94.8-98.3a17.95,17.95,0,0,1-1.259,1.865,139.774,139.774,0,0,0-10.725,15.295q.28,0,2.052-1.958a1.023,1.023,0,0,1,.653-.373q.28,0,.28.373,0,.56-1.026,1.166t-1.026,1.352a4.4,4.4,0,0,1-.56,1.865,4.41,4.41,0,0,1-1.352,1.679,5.374,5.374,0,0,0-1.492,1.819,5.516,5.516,0,0,1-.793,1.259,5.628,5.628,0,0,1-1.073,2.052,7.129,7.129,0,0,1-1.212,1.585q-.14,0-.42.653-1.492,2.8-2.611,2.8h-.28v.28a.082.082,0,0,0,.093.093,1,1,0,0,0,.56-.187,2.893,2.893,0,0,1-.933,1.772,1.16,1.16,0,0,1-.839.373l-.187-.373.56-1.4a.33.33,0,0,0-.373-.373l-.373.187-.187,1.026q0,1.026.56,1.306.373,0,.373.28v.093a2.884,2.884,0,0,1-.56,1.119l-.187.373q-4.2,7.927-4.2,9.419l-1.119,2.984Zm6.249-3.264a.287.287,0,0,0,.326-.233.484.484,0,0,1,.187-.326,2.994,2.994,0,0,0,.513-.653v-.28a11.9,11.9,0,0,0,1.119-1.679q3.078-5.6,4.2-6.435a1.789,1.789,0,0,0,.56-1.306A8.205,8.205,0,0,1-108.277-65q1.119-.933,1.119-1.679h.653l.093-.187a.652.652,0,0,1,.56-.746,1.534,1.534,0,0,1-.466-.093.431.431,0,0,1-.28-.466q0-.093.466-.233a5.411,5.411,0,0,0,1.212-.606,1.628,1.628,0,0,0,.746-1.492v-.56l-.56.746-.187-.187q0-.933,1.306-.933h-.187q0-.373.606-.7a1.394,1.394,0,0,0,.606-1.352q.653,0,4.85-6.249.653-1.119,2.192-3.218a24.51,24.51,0,0,0,1.725-2.518,2.157,2.157,0,0,0,.187-.886l-.187-.187q0,.839-.373.933l-.373-.187a.537.537,0,0,1,.187-.373q1.026-.933,1.026-1.119a3.559,3.559,0,0,0-1.772,1.026,28.052,28.052,0,0,0-4.663,5.875l-9.046,13.9q-.653,1.212-1.585,2.7t-1.585,2.7l-.746,1.306Q-116.018-53.812-116.018-52.879Zm8.673,1.119,2.238-.56,2.518-1.772q.653,0,6.2-3.684a53.165,53.165,0,0,0,5.642-3.964,1.012,1.012,0,0,1,.187-.373l.373.839a3.6,3.6,0,0,1,1.259-.933q.793-.373.793-.513a.519.519,0,0,1,.047-.233q.047-.093.28-.093a40.811,40.811,0,0,0,4.243-2.425q4.663-2.891,5.782-3.078.56,0,1.725-1.352a21.43,21.43,0,0,0,2.1-2.891,5.216,5.216,0,0,0,.933-2.285q0-.373-.187-.373-.746.28-11.471,6.808-14.083,8.673-14.083,9.606l.187.187q0,.093-.187.093-.839.187-.839.42t-.513.233a2.622,2.622,0,0,0-.793.093,1.243,1.243,0,0,0-.56.466,6.088,6.088,0,0,1-.56.653q-.093,0-.093-.047t-.093-.14q-.093-.093-.093-.14t-.093-.047l-.187.56.187.933a.982.982,0,0,1-.373.839,10.2,10.2,0,0,1-1.026.653,11.779,11.779,0,0,0-2.611,1.958Zm13.9,43.18a.33.33,0,0,0,.373-.373l-.56-.187a.165.165,0,0,0-.187.187A.33.33,0,0,0-93.448-8.58Zm0,1.119.187-.187-.373-.56v.373Q-93.635-7.461-93.448-7.461Zm.187,7.834V-3.264q-.28-2.891-.56-2.891Q-93.821.373-93.262.373Zm2.145,7.834-.839-3.824Q-92.982.746-93.262.746l.093,1.119.093.466a15.335,15.335,0,0,0,.7,3.078,14.84,14.84,0,0,1,.606,1.679q.28.373.373.513a.453.453,0,0,1,.093.233.767.767,0,0,0,.047.233Q-91.21,8.207-91.117,8.207ZM-92.889-5.129l.373-.56.187-.839a.3.3,0,0,0-.28.187l-.466,1.026A.165.165,0,0,0-92.889-5.129Zm2.332,9.886.093-.28a2.067,2.067,0,0,0,.093-.653,1,1,0,0,1-.187-.326q-.093-.233-.187-.233l-.373.187a1.386,1.386,0,0,0,.373,1.026.414.414,0,0,0,.047.187A.149.149,0,0,0-90.557,4.756Zm-.56-2.611V-2.7q0-2.611.466-2.611h.093q.28,0,.373-.653V-8.953q0-2.332.373-2.332t1.166-3.964q.793-3.964.886-4.057a23.041,23.041,0,0,0,.653-4.383l.233-.233a35.635,35.635,0,0,0,1.166-3.964,1.8,1.8,0,0,0,.28-.933A152.776,152.776,0,0,1-72.091-62.392l.839-1.585q-1.585,0-5.5,3.451l-2.984,2.611.28,1.585-.187.093q-.653,0-1.026,2.145a.537.537,0,0,1-.373.187q-.373.653-.746,1.212a4.5,4.5,0,0,0-.373,2.238q-.933,0-.933.746v.093H-83a.453.453,0,0,0,.093.233,4.4,4.4,0,0,0,1.679.14q-2.891.746-2.891,2.8a11.857,11.857,0,0,1-.7,2.1q-.7,1.819-.933,1.865t-.233.42a3.452,3.452,0,0,0,.14,1.073q.14.42.28.746t.326.326v-.746a.33.33,0,0,1,.373-.373.76.76,0,0,1,.187.56,1.906,1.906,0,0,0-.093.606,1.794,1.794,0,0,1-.373.886l-.093.187q-.093,0-.42-.373a.933.933,0,0,0-.7-.373l-1.585,4.477q-.28.839-.56.839a2.73,2.73,0,0,1-.56,1.958l-.187.653q0,.093.187.14a1.4,1.4,0,0,0,.233.047q.047,0,.14.093l-.653,1.679-.14.42q-.047.14-.14.14l-.093.466a3.613,3.613,0,0,0-.466,1.492l.187.373.933-.187a1.3,1.3,0,0,1-.093.56.716.716,0,0,0-.093.28q-.466,1.119-.886,1.119a1.749,1.749,0,0,0-.793.187q0,.28.093.28l.466-.093q.653,0,.653.233t.093.233a.082.082,0,0,1-.093.093,1.526,1.526,0,0,0-.373.093l-.466.653a6.344,6.344,0,0,1-.606,1.166,1.86,1.86,0,0,0-.14.979q0,1.306-.326,1.446t-.513.233l.187.187q0,.373-.093.373h-.093v.093h-.187l.373,1.119h-.56l.187,1.119-.56,1.119h.187l1.212-1.865.187.187a6,6,0,0,1-.933,2.518q-.373.653-.793.653t-.42,2.7l-.187,1.772q.839-1.4,1.306-1.4a.839.839,0,0,0,.28.746q.093.28.56.28a1.147,1.147,0,0,1-.466.187q-.373.093-.373.373l.187.56a1.057,1.057,0,0,1-.28.7,6.411,6.411,0,0,0-.466.606q0,.187.653.56.28.093.28.56l-.373,1.026a3.913,3.913,0,0,0-.56,2.052q0,1.119.373,1.119h.373q.373,0,.373.839,0,.653-.187.746A15.63,15.63,0,0,0-91.117,2.145Zm4.2-13.8.187-.373q.466-.839.7-1.306a8.565,8.565,0,0,0,.513-1.585q1.492-6.435,9.606-30.31,1.119-2.8,3.171-6.808,1.585-3.264,4.57-9.792A46.128,46.128,0,0,0-65.563-67.8a1.485,1.485,0,0,1-.839.466l-.653.28v.187l-.56.373q-.653.466-4.29,8.114l-4.756,9.7-.56,1.492q-9.513,26.673-9.513,34.041a1.008,1.008,0,0,1-.28.746q-.28.28-.28.373Zm14.642-60.154q.373,0,.653-.653t.7-.653a1.025,1.025,0,0,0,.606-.14q.187-.14.187-.793t.093-.653l1.585.373a1.867,1.867,0,0,0,1.492-.653,4.2,4.2,0,0,1,.326-.513,2.619,2.619,0,0,0,.373-.886.942.942,0,0,1,.466-.7,1.411,1.411,0,0,1,.466-.14A.751.751,0,0,0-65-77.314a.33.33,0,0,1,.373.373,1.234,1.234,0,0,1-.7.187q-.42,0-.42.933l.093.187q.373,0,1.4-1.352a4.063,4.063,0,0,0,1.026-2.1q0-.653-.466-.746l-.187-.187.28-.373q.187,0,.933.933a.165.165,0,0,0,.187-.187q0-.933-.746-.933A4.615,4.615,0,0,0-66.5-78.713a13.119,13.119,0,0,0-1.679,2.565A2.5,2.5,0,0,1-69.2-74.889l-.187-.187.373-.466a5.809,5.809,0,0,0,.746-2.425q-.28,0-1.119,1.119A19.012,19.012,0,0,0-72.278-71.812Zm11.658-6.9a.876.876,0,0,0,.56-.233,2.646,2.646,0,0,0,.42-.42,2.109,2.109,0,0,0,.187-.28.414.414,0,0,0,.047-.187,3.5,3.5,0,0,1-.373.326,5.1,5.1,0,0,1-.513.326A.541.541,0,0,0-60.62-78.713Zm1.4-2.052q.56,0,.56-.746,0-.653-.373-.653l-.373.653Q-59.408-80.765-59.221-80.765Zm-6.715-2.891L-65-84.4v.187a1.075,1.075,0,0,0,.373-.746h-.187l.187-.093.56.093q.653,0,1.026-.839l.187-.373-.187-.187-.373.373v-.373a1.189,1.189,0,0,1,.606-.56,2.459,2.459,0,0,0,.746-.513,1.079,1.079,0,0,0,.326-.793l-.187-.746a.763.763,0,0,1,.093-.42,2.281,2.281,0,0,0,.14-.233.731.731,0,0,1,.14-.187q.093-.093.093-.14t.093-.047v1.026q.28,0,.326-.886a1.987,1.987,0,0,1,.513-1.352.38.38,0,0,0,.28-.093v-.373q.839,0,.979-.233a2.775,2.775,0,0,1,.42-.513q0,.56-3.451,6.622a.165.165,0,0,0,.187.187,20.568,20.568,0,0,0,2.7-1.679q1.119,0,2.332-2.238a5.3,5.3,0,0,1,.653-.886.731.731,0,0,0,.187-.14l-.56-.373a1.337,1.337,0,0,0,.42-.653,1.657,1.657,0,0,1,.14-.466q-.187,0-.746.56a3.268,3.268,0,0,1,.187-1.026,3.046,3.046,0,0,1,.187-.326,1.527,1.527,0,0,1,.187-.233.971.971,0,0,1,.56-.093l-.187-.653q0-.933,3.264-5.129,4.01-5.129,4.01-6.715a.652.652,0,0,0-.56-.746l.187.56a.693.693,0,0,1-.513.187q-.326,0-1.352,1.865a2.245,2.245,0,0,1-1.026.653,2.8,2.8,0,0,1-1.026,1.679q-.653.653-.653,1.026a2.2,2.2,0,0,1-.28.933q-.839,1.679-1.212,1.679-.093,0-.093-.373t-.093-.373l-.839.933.653.466a3.725,3.725,0,0,1-.56,1.492A8.935,8.935,0,0,1-57.5-93.821q-.793.839-1.166.839l-.56-.373-1.4.56,1.4-.373a.9.9,0,0,1-.14.606,1.107,1.107,0,0,1-.7.14q-1.119.28-3.078,4.2a21.9,21.9,0,0,1-1.119,2.052A9.388,9.388,0,0,0-65.936-83.656Zm17.72-22.01.187-.373-.373-.56Q-48.4-105.666-48.216-105.666ZM-90-97.365a.165.165,0,0,1-.187-.187.818.818,0,0,0,.093-.233.358.358,0,0,1,.047-.14q.047-.093.233-.093l.187.373Zm-9.326,18.652,2.052-3.264a3.923,3.923,0,0,1-.886,2.005Q-99.044-78.713-99.324-78.713Zm-2.332-7.834-.187-.187q0-.56.233-.606a.641.641,0,0,0,.326-.14Q-101.282-86.547-101.655-86.547Zm2.332,2.145-.28-.373q0-.187.28-.187h.373v.187Zm18.093,33.761-.373-.187-.187-.56.187-.373a.54.54,0,0,1,.373.093v.466l.933-1.306a6.105,6.105,0,0,1-.373,1.492A.752.752,0,0,1-81.231-50.641ZM-86.547-35.16l-.373-.56a1.33,1.33,0,0,1,.746-1.119q.373,0,.373.56a1.177,1.177,0,0,1-.28.793Q-86.36-35.16-86.547-35.16Zm1.865-6.249h-.187l1.119-3.637.28.187v-1.026q0-.373.28-.373t.466-.466q.187-.466.373-.466a13.451,13.451,0,0,1-1.119,3.171A18.737,18.737,0,0,1-84.682-41.408Zm21.637-45.7v-.187a.839.839,0,0,1,.326-.653.967.967,0,0,1,.606-.28,1.529,1.529,0,0,0-.187.233,5.477,5.477,0,0,0-.28.513Q-62.765-87.106-63.045-87.106ZM-91.49-12.777q-.466,0-.466-.373l.839.187Zm1.679-8.953H-89.9q-.093,0-.093-.28l.28-.373h.093q.187.093.187.187Q-89.438-21.73-89.811-21.73Zm10.818-91.77h-.093v-.373q0-.187.093-.187h.28Q-78.713-113.5-78.993-113.5Zm-1.119,60.434v-.373q.187-.093.187-1.4a3.647,3.647,0,0,1,.653-.793,3.352,3.352,0,0,1,.746-.7l.187.187q-.28.56-.606,1.166a10.675,10.675,0,0,0-.513,1.073,1.447,1.447,0,0,1-.373.606A2.725,2.725,0,0,0-80.112-53.066Zm1.958-4.01q-.56,0-.56-.187a.752.752,0,0,1,.56-.373q.373,0,.373.187A.33.33,0,0,1-78.153-57.076Zm-22.2-20.051.56-1.212Q-99.977-77.127-100.35-77.127Zm66.962,3.171a.994.994,0,0,1,.093-.513,1.04,1.04,0,0,0,.14-.373.287.287,0,0,1,.326-.233A2.265,2.265,0,0,1-33.388-73.957Zm23.315-44.859h-.187l.187-.373V-119q.187-.093.187-.513a1.124,1.124,0,0,1,.093-.56.453.453,0,0,0,.093-.233q.187,0,.187.28a.247.247,0,0,0,.28.28q.28,0,.28.187l-.187.373ZM-39.916-50.455q-.093,0-.187-.933a3.022,3.022,0,0,1,.047-.7q.047-.14.14-.373t.187-.42l.187.187a.316.316,0,0,0-.093.233.576.576,0,0,1-.14.326,1.355,1.355,0,0,0-.14.746l.187.373Zm4.01-16.974a1.585,1.585,0,0,1,.14-.886.57.57,0,0,0,.14-.42q.28-1.958,1.119-1.958l.187.56Q-35.626-67.428-35.906-67.428Zm-2.611,8.394q.093-2.052.653-2.052h.093v.373a1.736,1.736,0,0,1-.373,1.119,1.069,1.069,0,0,1-.093.326Q-38.331-59.035-38.517-59.035Zm4.2-12.031v-1.119l.373-.746.187.373a1.369,1.369,0,0,1-.093.513,1.075,1.075,0,0,0-.093.373.8.8,0,0,1-.14.373Q-34.227-71.065-34.32-71.065Zm-5.036,15.481q-.187,0-.187-.373,0-1.119.839-1.119a.165.165,0,0,1,.187.187,1.432,1.432,0,0,1-.187.56,3.835,3.835,0,0,1-.326.56A.4.4,0,0,1-39.356-55.584Zm72.278,8.767-.28-.373.466-.56h.187v.373Zm2.891-4.756h-.093l-.187-.373a.165.165,0,0,1,.187-.187q.373,0,.373.187Q36.092-51.574,35.813-51.574ZM-17.16-6.155h-2.7L-22.01-7.834a25.242,25.242,0,0,0-3.171-2.332,23.162,23.162,0,0,1-9.233-9A43.747,43.747,0,0,1-39.123-30.5a40.358,40.358,0,0,1-1.352-7.088,1.085,1.085,0,0,0,.187-.28q.093-.187.187-.187v-.373q0-.839-.28-.933t-.28-.187q.56,0,.56-1.492,0-.933-.373-1.026l-.187.187a.585.585,0,0,1-.14-.233,1.877,1.877,0,0,1-.047-.513q.28,0,.653-2.145,3.078-14.829,3.73-15.388a11.269,11.269,0,0,0,1.119-2.984q4.1-11.564,7.088-16.041a6.491,6.491,0,0,0,1.119-2.611q0-.093-.933-.187T-29-82.723q-.56,0-1.119,1.212l-.187-.839-1.026.56q-.56,0-.56-1.679a5.286,5.286,0,0,1,.233-1.585,1.779,1.779,0,0,1,.513-.933q.373,0,.466-.56a.587.587,0,0,0-.326-.606q-.326-.14-.326-.326h.373q.28,0,1.119-1.865l1.026-2.145q8.487-18.279,18.746-24.435a4.314,4.314,0,0,0,1.306-1.119,3.43,3.43,0,0,1,.14-.373q.047-.093.233-.093t.326-.606q.14-.606.326-.7a1.085,1.085,0,0,0,.28-.187q0-.093-.466-.513t-.466-.606q0-.933,4.383-1.865,5.5-1.119,19.678-2.332,4.57,1.679,4.756,1.679a6.155,6.155,0,0,0,2.425,1.119q21.637,6.249,21.637,31.336a92.633,92.633,0,0,1-3.357,22.569l-3.264,8.58q-.28,0-4.383,8.953-3.264,7.461-3.637,7.647t-.373,1.026l.187.746-.187.187q-1.026,0-2.238,2.565a11.311,11.311,0,0,0-1.212,3.264,2.485,2.485,0,0,1-.839,1.585A13.2,13.2,0,0,0,23.5-30.776Q13.243-14.922,5.223-11.191,2.8-9.792-1.865-7.461-3.264-6.435-17.16-6.155Zm59.035-91.21a1.242,1.242,0,0,0-.466-1.026q-.187-.187-.28-.187Q41.408-97.365,41.875-97.365Zm-2.7,0v-1.026a.76.76,0,0,0-.187.56Q38.983-97.365,39.17-97.365Zm.187,6.062.187-.187a.763.763,0,0,0-.093-.42,1.1,1.1,0,0,1-.14-.42.3.3,0,0,0-.326-.28q0,1.119.14,1.166A.585.585,0,0,1,39.356-91.3Zm-.746,2.891q.28,0,.373-.56a.716.716,0,0,1,.093-.28.828.828,0,0,0,.093-.373l-.373-.187a.149.149,0,0,0-.14.093l-.14.28a1.038,1.038,0,0,0-.093.466ZM10.539-27.885q.28,0,1.772-1.772a92.1,92.1,0,0,0,6.062-7.554,55.19,55.19,0,0,1,3.73-6.062l1.212-1.958a6.546,6.546,0,0,1,1.212-2.052l1.119-1.585a2.493,2.493,0,0,1,.653-1.073,2.3,2.3,0,0,0,.653-1.259l-.187-.746.373-.746a.316.316,0,0,0,.233.093.188.188,0,0,1,.187.093.731.731,0,0,0,.14.187q0-2.238.746-2.7.093,0,.373-.28a1.14,1.14,0,0,0,.28-.839q0-1.119.373-1.119t1.212-1.725a6.753,6.753,0,0,0,.839-2.565.165.165,0,0,1,.187-.187q.187,0,.886-1.725a7.779,7.779,0,0,0,.7-2.471l-.187-.56.093.093v.047a.041.041,0,0,0,.047.047q.047,0,.233.187.28,0,.56-2.052Q34.693-69.76,36-74.143l1.306-4.2a1.971,1.971,0,0,0,.466-1.446q0-.979.187-.979a.369.369,0,0,0,.233-.047,15.586,15.586,0,0,0,.047-1.912,6.192,6.192,0,0,0,.56-2.425q0-1.212-.373-1.212-.093,0-.233.373a6.87,6.87,0,0,0-.233.746,19.832,19.832,0,0,0-.653,3.73,12.555,12.555,0,0,1-1.026,3.73,10.492,10.492,0,0,0-.933,3.451L33.481-68.92a2.885,2.885,0,0,1-.28,1.306l-.093.187q-.56.839-2.8,5.736A42.51,42.51,0,0,1,27.7-56.423a44.6,44.6,0,0,0-2.7,4.943q-4.2,8.673-4.756,8.673t-5.129,7.461a79.977,79.977,0,0,1-4.383,6.9Zm1.679-6.155.28-.187q1.119-1.026,1.119-1.306-.187.187-.466.42t-.606.513A.769.769,0,0,0,12.217-34.041Zm2.7-2.984a2.727,2.727,0,0,0,.233-.28,1.634,1.634,0,0,0,.233-.466,2.829,2.829,0,0,0,.093-.839l-.187.187-.746-.187Q14.549-37.025,14.922-37.025Zm1.306-2.518a3.238,3.238,0,0,0,.7-.42l.187-.187.14-.14q0-.093-.653-.187a1.1,1.1,0,0,0-.56.933ZM18-41.408a1.242,1.242,0,0,0-.466-1.026q-.187-.187-.28-.187a3.309,3.309,0,0,0,.233.933A.521.521,0,0,0,18-41.408Zm.373-1.212a.269.269,0,0,0,.187-.093l.326-.326a.95.95,0,0,0,.233-.7l-.187-.746q0-.373.933-.466.373,0,.373-.093a2.26,2.26,0,0,1-.28-.326,1.187,1.187,0,0,0-.28-.28,2.451,2.451,0,0,0-.373-.233q-.56,0-.933,1.679l-.093.187-.093,1.026Zm2.518-4.2q.28,0,.7-.606a6.576,6.576,0,0,0,.7-1.306,3.493,3.493,0,0,0,.28-.886q-.187.093-.42.233t-.606.326a2.341,2.341,0,0,0-.746.653,1.493,1.493,0,0,0-.373.933q.093.093.14.093h.326Zm2.052-3.637q.28,0,1.212-1.679a6.489,6.489,0,0,0,.56-.793,1.29,1.29,0,0,1,.326-.42,1.877,1.877,0,0,0,.326-.839,5.653,5.653,0,0,0,.653-2.145q-.187,0-.606.466T24.9-55.4a2.454,2.454,0,0,0,.28-.7,4.094,4.094,0,0,1,.093-.606q-.093,0-.233.187a2.45,2.45,0,0,0-.233.373,4.491,4.491,0,0,0-.933,2.238,4.065,4.065,0,0,1-.746,2.611.731.731,0,0,0-.14.187A2.364,2.364,0,0,0,22.942-50.455ZM37.118-95.313a1.148,1.148,0,0,0,.42-.233.646.646,0,0,0,.326-.513.33.33,0,0,0-.373-.373.382.382,0,0,0-.233.14A1.86,1.86,0,0,0,37.118-95.313Zm.187-1.306q0-2.891-.373-2.891l-.28.373Zm-1.026-7.274L36-104.36a2.259,2.259,0,0,1-.28-.326q-.093-.14-.187-.14a.95.95,0,0,0,.233.7A.713.713,0,0,0,36.279-103.894ZM26.393-56.517q.28,0,3.544-7.461l.653-1.306q-.373,0-.373-.187a6.078,6.078,0,0,1,.7-.933,3.672,3.672,0,0,0,.7-1.306,48.557,48.557,0,0,0,2.425-6.808,9.41,9.41,0,0,1,.56-1.865,14.061,14.061,0,0,0,.746-3.264l.187-.373a5.894,5.894,0,0,0,1.119-3.264l-.373-1.865.373.187q.28,0,.42-.373t.28-.839a3.231,3.231,0,0,0,.14-.933.652.652,0,0,0-.56-.746l.093-.187q.746-1.212,1.026-6.715l-.56.56-.373-.373q-.466,0-.466.56a1.823,1.823,0,0,1,.14.373q.047.187.093.513t.233.326l.373-1.026q0,1.4-.187,1.4t-.56.466A4.274,4.274,0,0,0,35.906-90a1.327,1.327,0,0,0,.28.233l.187.093q.093.047.093.7a7.671,7.671,0,0,1-.093,1.166,3.2,3.2,0,0,1-.233.886,1.126,1.126,0,0,0-.14.373q-.187.56-.28.56l-.373-.187A6.091,6.091,0,0,0,35.16-84.4a.19.19,0,0,0,.14-.047,2.324,2.324,0,0,0,.047-.7l.187.56a10.641,10.641,0,0,1-.466,2.518q-.373.933-1.026.933l.187.187.14.14a.506.506,0,0,1,.093.187l.14.42a15.116,15.116,0,0,1-1.119,4.477l-.187.653L32.642-73.3Q32.362-72,32.082-72l-.373-.56.187.933a10.025,10.025,0,0,1-.933,3.078,3.723,3.723,0,0,0-.466,1.4,2.934,2.934,0,0,1-.373,1.026l-.28.653A8.867,8.867,0,0,1,28.072-62.3a.269.269,0,0,0-.093.187.566.566,0,0,1-.14.28.928.928,0,0,0-.14.56,2.937,2.937,0,0,1-.746,2.1,2.475,2.475,0,0,0-.746,1.725Zm4.2-12.217.187-.187-.187-.56h.187l-.187-.28Zm2.7-7.834V-77.5q-.187,0-.187.56ZM-12.4-91.863l1.119-.933L-4.2-102.4a28.488,28.488,0,0,0-3.824,3.637A23.678,23.678,0,0,0-9.7-96.526q-2.891,4.1-2.891,4.663Zm5.6-27.326.933-.56a.33.33,0,0,0-.373-.373q-.28,0-.56.56Zm-1.4,5.129a.5.5,0,0,0,.56-.56.652.652,0,0,0-.746.56ZM-18.652-99.137q.373,0,3.824-3.824t4.01-3.824q.093,0,2.8-2.425l3.264-2.891-.187-.187.093-.093a.38.38,0,0,1,.28-.093q.187,0,.373-.56v-.466a6.925,6.925,0,0,0-3.031,1.352,28.619,28.619,0,0,0-3.917,3.031q-1.819,1.679-1.819,2.332,0,.187-.233.187t-1.632,1.679q-2.145,2.518-2.7,2.518l-.093.093.093.28q0,.373-.28.373a.907.907,0,0,1-.466-.187l.373,1.026a1.277,1.277,0,0,1-.466.746,1.277,1.277,0,0,0-.466.746Zm-7.834,28.258q.56,0,.56-.746a.5.5,0,0,0-.373-.56,1.567,1.567,0,0,1-.093.7,2.281,2.281,0,0,0-.14.233.731.731,0,0,1-.14.187Zm.187,2.891q.653,0,.746-1.119a.811.811,0,0,0-.326.14,1.767,1.767,0,0,0-.513.606l-.093.187A.165.165,0,0,0-26.3-67.988Zm.746-4.57q.373,0,.373-1.4l-.56,1.212Zm.187,3.078a1.35,1.35,0,0,0,.56-1.212.5.5,0,0,0-.56-.56,1.476,1.476,0,0,0-.187.933Q-25.554-69.48-25.367-69.48Zm.373,7.554.839-2.052a10.335,10.335,0,0,0,1.026-3.078l-.187-.187q-.28,0-.979,2.471A20.7,20.7,0,0,0-24.994-61.926Zm.373-9.513q.373,0,1.772-2.891a10.872,10.872,0,0,1,1.119-2.052,7.591,7.591,0,0,0,.839-1.865.763.763,0,0,1,.093-.42q.093-.14.28-.466t1.026-1.446l3.73-6.249q.093,0,.233-.187t1.446-2.192a10.448,10.448,0,0,0,1.306-2.285l-.466.28q-1.026.933-1.026,1.4a.578.578,0,0,1-.42.606,2.783,2.783,0,0,0-.793.42q0,.839-3.824,6.9-1.958,3.078-3.637,6.015A10.306,10.306,0,0,0-24.621-71.438Zm1.772-6.9.373-.187.746-1.492h-.187a3.259,3.259,0,0,0-.373.42,1.852,1.852,0,0,1-.233.28,6.523,6.523,0,0,0-.606.979Zm1.865-17.16a1.828,1.828,0,0,0,.42-.187,5.84,5.84,0,0,0,.7-1.306.165.165,0,0,0-.187-.187.628.628,0,0,0-.56.28,3.057,3.057,0,0,1-.373.466l-.373-.373A5.161,5.161,0,0,1-20.984-95.5Zm-.56-4.383a1.678,1.678,0,0,0,.513-.28,2.5,2.5,0,0,0,.7-.7,1.445,1.445,0,0,0,.28-.793,1.016,1.016,0,0,0-.793.373,3.139,3.139,0,0,0-.513.793A1.761,1.761,0,0,0-21.543-99.883Zm2.052,1.865a1.038,1.038,0,0,0,.466-.093l.28-.14a.149.149,0,0,0,.093-.14l-.653-.373-.28.28a.38.38,0,0,1-.28.093.165.165,0,0,0-.187.187l.187.187Zm1.585,6.715.373-.187.746-1.679A7.421,7.421,0,0,0-17.906-91.3Zm2.611-3.637,1.026-1.306-.187.093Q-15.295-95.5-15.295-94.94Zm-1.865-10.912a1.528,1.528,0,0,1,.233-.187.42.42,0,0,0,.14-.373.165.165,0,0,0-.187-.187q-.093,0-.093.047t-.14.187a.447.447,0,0,0-.14.326Zm1.865-.373a.414.414,0,0,0-.047-.187.528.528,0,0,0-.187-.187.833.833,0,0,1-.233-.233,1.528,1.528,0,0,0-.187-.233,1.882,1.882,0,0,1-.093-.839.19.19,0,0,0-.14.047q-.047.047-.233.28a.941.941,0,0,0-.187.606Q-16.6-106.225-15.295-106.225Zm2.518-2.611,1.306-1.212-.56.187Zm3.451-5.409a1.528,1.528,0,0,1,.233-.187.42.42,0,0,0,.14-.373l-.187-.187a.453.453,0,0,1-.093.233A.994.994,0,0,0-9.326-114.246ZM-24.435-98.578a15.185,15.185,0,0,0,1.492-1.865l2.611-3.357q3.917-5.223,5.223-5.223h.466q.28,0,.56-.466l.28-.839q.746-1.585,1.306-1.585a.6.6,0,0,0,.653-.56l.373.373a.767.767,0,0,0,.233-.047,2.043,2.043,0,0,0,.373-.187.393.393,0,0,0,.233-.326l-.187-.373.466-.746a24.541,24.541,0,0,0-6.342,5.129,71.821,71.821,0,0,0-5.456,6.435Q-24.435-99.137-24.435-98.578Zm1.585,5.6q.093,0,.187-.14a1.528,1.528,0,0,1,.187-.233,1.882,1.882,0,0,0,.373-1.212A2.228,2.228,0,0,0-22.849-92.982ZM-23.5-91.49a.165.165,0,0,0,.187-.187v-.373h.187v-.187h-.56Zm-.56-4.383a3.065,3.065,0,0,0,.466-.513q0-.047.093-.14a.316.316,0,0,0,.093-.233.316.316,0,0,1,.093-.233q-.28,0-.513.373A1.4,1.4,0,0,0-24.062-95.873Zm-1.119,1.679.233-.233a1,1,0,0,0,.187-.233.731.731,0,0,1,.14-.187.316.316,0,0,0,.093-.233.316.316,0,0,1,.093-.233l-.187-.187A2.015,2.015,0,0,0-25.181-94.194Zm-.56-2.238.933-1.4-.187-.187A7.057,7.057,0,0,0-25.74-96.433Zm.187,3.637a.752.752,0,0,0,.373-.56q0-.28-.373-.28h-.187q-.187,0-.187.466,0,.373.28.373Zm-.933,2.425.187-.933q0-.373-.187-.373a1.08,1.08,0,0,0-.187.746Q-26.673-90.371-26.486-90.371Zm-2.238,1.585.466-.187-.653-.373-.093.187Q-29-88.785-28.725-88.785Zm-1.212,3.824q.373,0,.373-.839a.165.165,0,0,0,.187-.187l-.56.653Zm1.119-.187q.093,0,.42-.7a3.382,3.382,0,0,0,.326-1.446A12.5,12.5,0,0,0-28.818-85.148Zm1.306-5.6q.373,0,.373-.56a.76.76,0,0,0-.56-.187l-.373.187A.5.5,0,0,0-27.512-90.744ZM-29-70.692q.28,0,2.332-4.756a74.326,74.326,0,0,1,3.917-7.834,9.341,9.341,0,0,1,1.585-2.332q.28,0,.839-.979a18.794,18.794,0,0,0,1.026-2.1,5.117,5.117,0,0,0,.466-1.492q-.466,0-5.409,9t-4.943,10.492Zm1.119,2.891q.28,0,.746-.746a.628.628,0,0,1,.28-.56,1.023,1.023,0,0,0-.653.373A1.265,1.265,0,0,0-27.885-67.8Zm-3.637,3.451a3.791,3.791,0,0,0,.466-1.212,9.23,9.23,0,0,1,1.212-2.471,1.583,1.583,0,0,0,.466-1.073q0-.933-.373-1.026a.19.19,0,0,0-.14.047.369.369,0,0,0-.047.233q0,.187-1.492,4.477l-.187.839v.14Q-31.616-64.351-31.522-64.351Zm-1.492,4.01.28-.839a14.7,14.7,0,0,0,.653-2.8,4.376,4.376,0,0,0-.933,2.332l-.093.28-.093.839A.165.165,0,0,0-33.015-60.34Zm-2.7,8.767,2.332-7.834v-.373q-.093,0-.187.187a1.085,1.085,0,0,1-.187.28,2.01,2.01,0,0,0-.56,1.212Zm1.4,10.166.373-1.585-.187-.56h-.187l-.187,1.119Zm.373-2.891v-.187l-.187-.373h.187l-.187-.187v.746Zm1.679,11.285q.28,0,.373-2.238a33.3,33.3,0,0,0-.187-4.663q-.093,0-.14.326a4.3,4.3,0,0,0-.047.606,34.36,34.36,0,0,0-.373,4.57l.187,1.212Zm.746-9.792q.373-.28.373-1.306,0-.373-.187-.373a3.052,3.052,0,0,0-.373,1.679Zm-2.238-3.451q.093-.28,2.145-6.9t2.052-6.855a.42.42,0,0,1,.28-.373q.28-.14.28-.326h-.746a.937.937,0,0,0-.466.746l-.093.373q-.28,0-2.052,5.736t-1.772,7.228l.187.373Zm4.943-16.228q.28,0,1.585-2.052a2.893,2.893,0,0,0,.746-1.772q0-.56-.373-.56-.466,0-1.026,1.4a5.655,5.655,0,0,0-.466.979q-.187.513-.28.7Zm.746,8.021q.373,0,.746-1.492h.187a6.461,6.461,0,0,1,.653-2.238,1.892,1.892,0,0,0,.373-1.026l-.187.093a1.151,1.151,0,0,0-.839.839,13.625,13.625,0,0,0-.326,1.492,7.151,7.151,0,0,1-.28,1.212,3.581,3.581,0,0,0-.187.653A1.657,1.657,0,0,1-28.072-54.465Zm9.979,39.729a11.426,11.426,0,0,0,1.679-.14,5.934,5.934,0,0,0,1.632-.466q.7-.326.7-.513a.54.54,0,0,1-.373-.093,1.085,1.085,0,0,1-.187-.28q0-.653,3.078-2.052l5.6-2.425a69.638,69.638,0,0,0,8.114-3.73,70.689,70.689,0,0,0,7.647-8.953,17.337,17.337,0,0,1,2.238-2.891,1.65,1.65,0,0,0,.466-.746,1.1,1.1,0,0,1,1.119-.839q.28,0,.373-.746a2.687,2.687,0,0,1,.933-1.865l1.306-2.145a5.136,5.136,0,0,1,.839-1.306,15.533,15.533,0,0,0,1.119-1.492q.28-1.4.746-1.4.093.093.14.093t.14.093a.585.585,0,0,0,.233.14,1.414,1.414,0,0,0,.42.047l.187-.187a.763.763,0,0,0-.093-.42,2.26,2.26,0,0,0-.28-.326.537.537,0,0,0-.373-.187q2.145-4.01,2.518-4.477a1.408,1.408,0,0,0,.373-.839.76.76,0,0,1,.187-.56.611.611,0,0,1,.606.28,1.775,1.775,0,0,0,.326.466l-.187-1.585a1.265,1.265,0,0,1,.373-.933l.466-1.212q.373-1.212.606-1.212t.42-.606a7.6,7.6,0,0,1,.466-1.166q.28,0,.28-.14a.316.316,0,0,1,.093-.233L26.02-60.9a44.275,44.275,0,0,0,2.238-4.2,8.4,8.4,0,0,1,.42-1.166,2.117,2.117,0,0,0,.233-.793,3.3,3.3,0,0,1,.233-1.352q.233-.513.373-.513a.316.316,0,0,0,.233-.093.738.738,0,0,0,.093-.466.521.521,0,0,1,.28-.513q.28-.14.28-.326l-.187-.56a10.591,10.591,0,0,1,.933-3.451,12.258,12.258,0,0,0,.606-1.865q.047-.373.14-.373h.373a17.4,17.4,0,0,1,.793-4.477,17.958,17.958,0,0,0,.793-4.756,4.054,4.054,0,0,1,.513-1.539.95.95,0,0,0,.233-.7,32.435,32.435,0,0,1,.28-4.2,43.091,43.091,0,0,0,.28-5.409,21.792,21.792,0,0,0-2.238-9.886q-.373-.746-.653-.746l-.746.373a.66.66,0,0,1-.653-.42,12.531,12.531,0,0,1-.466-1.352l.56.466.187-.466a.716.716,0,0,0-.093-.28,3.05,3.05,0,0,0-.187-.326,4.148,4.148,0,0,1-.233-.42,1.968,1.968,0,0,0-.373-.513,1.716,1.716,0,0,0-.42-.326,1.716,1.716,0,0,0-.513-.14,3.123,3.123,0,0,1-1.166-.839q-.839-.793-1.679-1.446l-.746-.56a5.4,5.4,0,0,0-2.8-.839l-1.958.933q-5.6,2.7-6.062,3.078a23.193,23.193,0,0,1-4.243,3.031q-2.005,1.073-7.554,7.181t-6.109,8.16a.748.748,0,0,1-.653.513q-.466.047-3.078,4.29a38.773,38.773,0,0,0-2.611,4.523A13.632,13.632,0,0,1-12.4-78.9q-3.264,4.943-3.264,6.155a6.363,6.363,0,0,1-.839,2.052,7.321,7.321,0,0,1-1.026,1.679.376.376,0,0,0-.187.373q0,.28-.746,1.026A4.818,4.818,0,0,0-20-64.77a19.947,19.947,0,0,1-1.725,4.43l-2.052,6.808q-3.544,12.963-3.544,22.569,0,13.15,7.461,15.854A3.575,3.575,0,0,0-18.093-14.735ZM30.963-48.869a4.359,4.359,0,0,0,.7-1.119,4.684,4.684,0,0,0,.606-1.4.61.61,0,0,0-.28.28q-.093.187-.28.513a4.142,4.142,0,0,0-.326.746,5.085,5.085,0,0,1-.233.606Zm3.451-5.6a.414.414,0,0,0,.187-.047q.093-.047.326-.14t.233-.56A.659.659,0,0,0,34.414-54.465Zm1.492-2.8q.093,0,.187-.187a1.823,1.823,0,0,0,.14-.373,1.533,1.533,0,0,0,.047-.373q0-.093-.187-.093Zm1.958-7.088q.28,0,.886-1.865a11.192,11.192,0,0,0,.606-2.332,5.885,5.885,0,0,0-1.212,2.518A6.674,6.674,0,0,0,37.864-64.351Zm1.865-5.782a.5.5,0,0,0,.373-.56.42.42,0,0,0-.373.14,1.528,1.528,0,0,1-.187.233A.165.165,0,0,0,39.729-70.133Zm2.332-8.394-.187-.187A.165.165,0,0,0,42.061-78.526ZM3.451-15.668a11.542,11.542,0,0,0,3.637-1.865,49.932,49.932,0,0,0,4.8-3.637q2.285-1.958,2.285-2.7l1.492-1.4a5.328,5.328,0,0,0,1.492-1.772,11.784,11.784,0,0,1,1.772-2.611q2.052-2.7,4.01-5.875.746-.653.746-1.119l.933-1.585a4.288,4.288,0,0,0,1.026-2.1,1.37,1.37,0,0,1,.187-.886.215.215,0,0,1,.233.14.585.585,0,0,0,.14.233q.093,0,.187-.56l.56-.933a12.236,12.236,0,0,0,1.4-2.378,7.068,7.068,0,0,1,.979-1.725,11,11,0,0,0,1.259-2.611,3.165,3.165,0,0,1,.466-1.119q1.119-2.332,1.865-2.332l.187-.187-.466-.746.28-.187.373.187q.373,0,.373-.466l-1.026-.56.466-.373.653-1.306q1.212-2.518,1.819-4.057t.886-1.539l.839,1.585a9.476,9.476,0,0,1,.093-1.492,10.265,10.265,0,0,0,.093-1.585l-.373.187-.187-.187a10.261,10.261,0,0,1,.653-2.145q1.865-4.29,4.1-15.2l.746-3.078v-6.155q-.56-7.834-1.119-7.834-.187,0-.187,3.637,0,13.9-7.927,31.243-1.119,2.611-1.492,3.73a47.373,47.373,0,0,0-2.425,4.663q-4.1,8.114-4.616,8.533A5.491,5.491,0,0,0,23.5-44.02l-.746,1.4a3.868,3.868,0,0,0-1.026,1.585A90.072,90.072,0,0,1,14.456-30.59q-2.8,3.451-2.8,4.01a.165.165,0,0,0,.187.187l1.958-.933v.373l-.56.56q-1.585,1.585-2.145,1.585V-26.02a.382.382,0,0,0-.233.14,1,1,0,0,0-.187.233.414.414,0,0,0-.047.187.082.082,0,0,1-.093.093l-.187.56.56.56q0,.187-1.166.326t-1.166.233l.187.373q0,1.026-2.052,2.8Q5.6-19.4,5.6-19.165t-.373.466A12,12,0,0,0,3.73-17.347a1.324,1.324,0,0,1-.979.373q-.606,0-.606.466,0,.839.373.839.28,0,.28-.233a.455.455,0,0,1,.093-.326.149.149,0,0,1,.14.093,1.446,1.446,0,0,1,.093.28Q3.171-15.668,3.451-15.668ZM42.994-86.547v-3.824l-.187-2.611Zm-74.33,8.394q-.373,0-.373-.28a4.144,4.144,0,0,1,1.026-1.772q.187-.373.373-.373a4.189,4.189,0,0,1-.28,1.352A1.943,1.943,0,0,1-31.336-78.153ZM11.191-21.17q-.466,0-.466-.28t.373-.28q.373,0,.373.187Q11.471-21.17,11.191-21.17ZM37.3-89.158q-.187,0-.187-.56,0-.28.187-.28ZM6.528-18.746q-.56,0-.56-.373a.616.616,0,0,1,.606-.653,14.92,14.92,0,0,1,2.005-.093A4.173,4.173,0,0,1,6.528-18.746Zm80.951-88.972-.28-.373q0-.373.466-.56l.187.187Zm-2.891,94.94v-.373q0-.933.373-1.026A5.156,5.156,0,0,1,84.588-12.777ZM81.511-23.036v-.373a2.934,2.934,0,0,1,.373-1.026A8.528,8.528,0,0,1,81.511-23.036ZM85.148,12.4h-.093a4.311,4.311,0,0,1-.839-.839q0-.093-.187-.093,0,.093-.14.14a.767.767,0,0,1-.233.047,3.975,3.975,0,0,1-1.4.187,2.233,2.233,0,0,1-1.352-.28,9.288,9.288,0,0,1-1.212-2.192q-.886-1.912-1.819-3.684V5.5a32.846,32.846,0,0,1-1.119-9.7q0-5.969.606-12.171a61.8,61.8,0,0,1,1.073-7.881,3.82,3.82,0,0,0,.56-1.958q.187-1.585.606-1.772T80.019-29a3.746,3.746,0,0,1,.233-1.725,3.283,3.283,0,0,0,.42-1.026q.187-.7.466-1.446a40.969,40.969,0,0,1,1.073-4.57q.979-3.637,1.446-4.1,0-.933,2.611-8.767a2.688,2.688,0,0,0,.56-1.306q2.518-4.383,2.518-5.689A25.015,25.015,0,0,0,85.708-55.4q-5.875,4.01-8.114,5.409Q61.18-39.729,55.584-39.356q-4.29,0-5.689-.653a4.906,4.906,0,0,1-2.8-2.518.414.414,0,0,0-.047-.187.149.149,0,0,0-.14-.093h-.093l-.839.746q-.28,0-.466-.42a8.235,8.235,0,0,0-.466-.886,6.052,6.052,0,0,0-1.912-3.124q-1.259-.979-1.446-1.166h-.093v-.187l.373-.28a1.452,1.452,0,0,1,1.306-.56q1.026-.373,3.078-5.969l.933-2.052A29.675,29.675,0,0,1,49.8-61.739q.187,0,.28-.466,0-1.119,2.8-5.036Q56.7-73.21,60.34-79.272q.28,0,1.679-2.332,2.052-3.078,2.471-3.124a.421.421,0,0,0,.42-.466,1.234,1.234,0,0,1,.187-.7l.093-.187.093-.093a3.042,3.042,0,0,0,.933-1.492q.653-1.119.839-1.119a.537.537,0,0,0,.373-.187.537.537,0,0,0,.187-.373q0-.746,2.145-3.357,6.062-8.394,10.352-14.176,18.093-24.155,21.077-25.833a35.932,35.932,0,0,1,4.383-1.4,1.265,1.265,0,0,1,.933.373,2.329,2.329,0,0,0,1.539.839,1.15,1.15,0,0,1,.979.373q0,.373.56.373h.187a3.145,3.145,0,0,1,1.4.373q1.865,1.026,1.865,1.679l.746,1.958v.373a2.874,2.874,0,0,0-.373,1.166,4.4,4.4,0,0,1-.56,1.539,10.34,10.34,0,0,0-2.332,4.01l-2.8,4.01q-2.7,3.078-15.015,19.212l-2.8,3.637q-9.14,11.938-9.14,12.031a21.647,21.647,0,0,1-2.891,3.824q-2.238,2.984-2.238,3.637a5.637,5.637,0,0,1-.746.606,17.033,17.033,0,0,0-2.238,3.218,23.535,23.535,0,0,1-2.471,3.264.57.57,0,0,0-.326.513A8.227,8.227,0,0,1,68.827-65l-.28.56a26.7,26.7,0,0,1-3.637,5.036Q72.185-63.7,77.874-67.8l15.108-9.046q8.487-4.663,10.259-6.9a23.4,23.4,0,0,0,2.052-3.357q2.518-4.57,4.29-7.274,5.129-8.021,5.129-8.58a17.677,17.677,0,0,0,1.492-1.912,2.159,2.159,0,0,1,.373-.56.968.968,0,0,0,.28-.466q0-.14,2.611-3.964a16.416,16.416,0,0,1,1.026-1.539q.466-.606.839-1.166.746-1.119.886-1.119t.14-.187a2.558,2.558,0,0,1,.653-1.492.082.082,0,0,0,.093-.093A20.555,20.555,0,0,1,126.37-119a8.1,8.1,0,0,1,2.891-1.119h1.772a.537.537,0,0,1,.187.373l-.466.933,1.772-.373.373.187q.28.466,1.306.466a1.515,1.515,0,0,1,.839.326,5.031,5.031,0,0,0,1.4.606l.28.093a2.081,2.081,0,0,1,.886.606,2.111,2.111,0,0,1,.233,1.166q.373,1.306.56,1.306a1.507,1.507,0,0,1,.839,1.4v.56a4.455,4.455,0,0,0-.466,2.425q0,1.306-3.218,6.3a39.949,39.949,0,0,1-3.591,5.176,8.908,8.908,0,0,0-.746,1.772q-3.637,5.875-3.824,6.435a1.811,1.811,0,0,0,.839,1.4,5.841,5.841,0,0,0,1.772,1.352,4.1,4.1,0,0,0,1.772.513l.746-.187q.093,0,.373.466a1.014,1.014,0,0,1,.373.42.688.688,0,0,0,.653.326.726.726,0,0,1,.466.746q0,.56-.746.746l-.373-.187a3.056,3.056,0,0,0,.466.373.628.628,0,0,1,.28.56.316.316,0,0,0-.093.233.751.751,0,0,1-.093.326q-.093.187-.653.187-1.865,0-8.114,3.637-8.673,5.223-10.072,7.647a8.359,8.359,0,0,0-1.026,2.332q-.466,2.7-3.451,6.249A221.5,221.5,0,0,0,97.832-36.372Q87.666-11.378,87.666,6.342l-.187.933a1.08,1.08,0,0,1-.746.187H86.64l.187,2.052q0,.933-.373,1.026-.746,0-.746.886T85.148,12.4Zm-6.9-98.764v-.187a2.934,2.934,0,0,1,.373-1.026q.187-.373,2.052-2.8a2.623,2.623,0,0,0,.839-1.492.541.541,0,0,0-.326-.466,5.1,5.1,0,0,1-.513-.326.566.566,0,0,0-.28-.14,8.543,8.543,0,0,1,2.238-.187l-.187-.373a4.511,4.511,0,0,1,1.119-1.865,1.67,1.67,0,0,0,.466-1.026q0-.466,2.052-3.264a13.027,13.027,0,0,0,1.4-2.145q-.839,0-4.663,5.223L78.34-90.371a8.056,8.056,0,0,0-1.4,2.518l.187.187.746-.187.187.187a3.952,3.952,0,0,0-.373,1.119.165.165,0,0,0,.187.187Zm9.419-15.854q.653,0,1.492-1.212a2.469,2.469,0,0,0,.373-1.4q-.28,0-1.119.933A5.064,5.064,0,0,0,87.666-102.215ZM91.21-106.6q.373,0,.466-.56a.91.91,0,0,0-.653.187Zm-6.435-3.078q.28,0,2.891-3.171v-.187q-.187,0-.933.7a12.214,12.214,0,0,0-1.352,1.492A2.4,2.4,0,0,0,84.775-109.676ZM82.443-106.6l.746-.933L83-107.717Q82.443-107.531,82.443-106.6Zm-3.451,4.756.187-.093a2.063,2.063,0,0,0,.653-.839q.653-.933.933-.933a19.317,19.317,0,0,0,1.306-2.518,6.625,6.625,0,0,0-1.026,1.119A15.518,15.518,0,0,0,78.993-101.842ZM60.9-76.381l.373-.187a.453.453,0,0,0,.233-.093.994.994,0,0,1,.513-.093q0-.746.28-.793a1.1,1.1,0,0,0,.42-.14q.14-.093.513-.373a.082.082,0,0,0,.093-.093.76.76,0,0,0-.56-.187l-.187.187-.187-.187.746-.373q.653,0,.7-.746t.14-1.492q-2.8,3.73-2.891,4.383Zm-2.518,4.01a2.548,2.548,0,0,0,1.585-.933.91.91,0,0,0,.187-.653,2.727,2.727,0,0,0-1.119.653,3.654,3.654,0,0,0-.839.746Zm-.093,1.119.093-.187-.373-.187-.746.187A1.7,1.7,0,0,0,58.289-71.252Zm-1.4,1.119.187-.187.187-.56q-.093,0-.093.047a.682.682,0,0,1-.14.233A.755.755,0,0,0,56.89-70.133ZM55.3-67.242q.466,0,.466-.933a1.8,1.8,0,0,0-.233.326,1.21,1.21,0,0,1-.606.42Q54.931-67.242,55.3-67.242ZM52.32-61.086q.56,0,.56-.373-.28-1.4-1.4-1.4,1.026.839,1.026,1.119l-.187.28a.863.863,0,0,1-.933-.653l-.093-.187v.56A1.14,1.14,0,0,0,52.32-61.086Zm-1.585,1.865.373-.56v-.56a.376.376,0,0,0-.373.187,2.45,2.45,0,0,1-.233.373.62.62,0,0,0-.14.373Zm-2.052,9.606q.28,0,.933-.839a.964.964,0,0,1,.933-.56A.414.414,0,0,0,50.5-51.2a2.109,2.109,0,0,0-.187-.28,1.128,1.128,0,0,1-.14-.653,1.96,1.96,0,0,1,.886-.187q.513,0,.7-.653a.756.756,0,0,1,.746-.653q1.119-3.637,1.679-3.637l.373.187L54.372-58.1l.187-.373h.56q.466,0,.466-.373l-.28-.56a9.141,9.141,0,0,1,.979-2.052q.979-1.772,1.632-1.772t.653-.466l-.093-.187q-.466,0-.466-.28a6.646,6.646,0,0,1,.933-1.772l1.026-.933L59.128-65.1a15.171,15.171,0,0,0,1.679-3.078l.373-.653.28-.187v-.093q0-.187.326-.326a2.13,2.13,0,0,0,.653-.466,1.079,1.079,0,0,0,.326-.793,1,1,0,0,0-.56.187l-.187-.466v-.093l.373-.187a1.221,1.221,0,0,0,1.212-.56h-.466l-.187-.373q0-.28.373-.373a1.147,1.147,0,0,0,.466-.187,1,1,0,0,1-.187.56q.28,0,2.611-4.01a3.358,3.358,0,0,0-1.119.933,4.078,4.078,0,0,0,.466-.793,2.049,2.049,0,0,1,.373-.606l.28-.187.373-.373.466-.933.187-.187h.093v.093a.566.566,0,0,1-.14.28,3.043,3.043,0,0,1-.28.326,1.107,1.107,0,0,0-.14.7.414.414,0,0,0,.187-.047.76.76,0,0,0,.233-.28,2.775,2.775,0,0,1,.42-.513,3.008,3.008,0,0,0,.56-1.679l.373.187.373-.187-.373-.746a.649.649,0,0,1,.047-.28q.047-.093.326-.14a.713.713,0,0,0,.373-.14l-.187-.373q0-.373.28-.373t.933-.746a4.186,4.186,0,0,0,.653-1.026l-.187.187-.187-.373a.316.316,0,0,1,.233-.093,2.006,2.006,0,0,0,.373-.047q.233-.047.979-1.026a3,3,0,0,0,.746-1.725,2.529,2.529,0,0,1,1.119-.746l.187-.373-.187-.187-.746.373.093-.28a1.085,1.085,0,0,0,.187-.28q.093-.187.42-.187a2.213,2.213,0,0,0,.513-.047,1.154,1.154,0,0,0,.42-.233.574.574,0,0,0,.233-.466l-.373-.373L75.169-90l.653-.56.187.187-.187.56q0-.28.933-1.119,3.264-3.824,3.264-5.129a1.474,1.474,0,0,1,.56-.933l-.373.746.187.187.187-.093a3.708,3.708,0,0,0,.933-1.585L81.7-98.2l-.373-.373v-.187l.373.187a.828.828,0,0,0,.373-.093,1.665,1.665,0,0,1,.42-.14q.233-.047.653-.7t.886-1.306L83.842-101a1.384,1.384,0,0,1-.653.373,11.065,11.065,0,0,1,.839-1.4q.839-1.306,1.306-1.306l-1.119,1.679q.28,0,.979-.886a2.809,2.809,0,0,0,.7-1.725l.187.187q.56,0,.56-.187l-.187-.187a.971.971,0,0,1,.093-.56h.093l.187-.093a1.747,1.747,0,0,1,.187-.933,1.549,1.549,0,0,0,.979-.326q.42-.326.42-.606l.56-.839a.906.906,0,0,0,.187-.466l-.746.373a2.359,2.359,0,0,1,1.119-1.306.667.667,0,0,0,.513-.28.876.876,0,0,0,.233-.56,1.277,1.277,0,0,1,.466-.746h.28l.187-.373a1.452,1.452,0,0,1,.42-1.073,1.576,1.576,0,0,1,1.166-.42l-.187-.839q1.585-1.585,1.585-2.052.373-.56.466-.746a.828.828,0,0,0,.093-.373q-.093,0-.28.28a10.528,10.528,0,0,1-1.306,1.4l-.187-.187a3.4,3.4,0,0,1,.839-1.679q1.865-2.332,1.865-2.891l-.187-.187-.28.373q0,.56-.373.56t-3.637,4.2a37.263,37.263,0,0,1-4.2,4.383l-.933,1.4q-.466,1.492-1.026,1.492a2.451,2.451,0,0,0-.373.233.672.672,0,0,0-.233.466q-.047.326-.793.979-1.026,1.119-1.026,1.4a1.36,1.36,0,0,1-.28.7q-.28.42-2.145,2.565a3.221,3.221,0,0,0-.56.746,1.082,1.082,0,0,1-.653.933l-.373.56a41.481,41.481,0,0,0-2.844,3.917,20.884,20.884,0,0,1-3.4,4.1q-.746.746-.746,1.026a1,1,0,0,1-.187.56,1.868,1.868,0,0,1-1.026.56l-.373-.187a4.151,4.151,0,0,0,1.119-1.958,1.245,1.245,0,0,1,.233-.326,4.624,4.624,0,0,0,.326-.373q.187-.233.28-.233a1.221,1.221,0,0,0,.466-.793q.093-.513.513-.513t.466-.466a3.473,3.473,0,0,1,.979-1.492,22.907,22.907,0,0,0,3.264-4.943q-.187,0-.373.28A6.983,6.983,0,0,0,76.148-98.3a17.95,17.95,0,0,1-1.259,1.865A139.774,139.774,0,0,0,64.164-81.138q.28,0,2.052-1.958a1.023,1.023,0,0,1,.653-.373q.28,0,.28.373,0,.56-1.026,1.166T65.1-80.578a4.4,4.4,0,0,1-.56,1.865,4.41,4.41,0,0,1-1.352,1.679,5.374,5.374,0,0,0-1.492,1.819,5.516,5.516,0,0,1-.793,1.259A5.628,5.628,0,0,1,59.827-71.9a7.129,7.129,0,0,1-1.212,1.585q-.14,0-.42.653-1.492,2.8-2.611,2.8H55.3v.28a.082.082,0,0,0,.093.093,1,1,0,0,0,.56-.187,2.893,2.893,0,0,1-.933,1.772,1.16,1.16,0,0,1-.839.373L54-64.91l.56-1.4a.33.33,0,0,0-.373-.373l-.373.187-.187,1.026q0,1.026.56,1.306.373,0,.373.28v.093A2.884,2.884,0,0,1,54-62.672l-.187.373q-4.2,7.927-4.2,9.419L48.5-49.9Zm6.249-3.264a.287.287,0,0,0,.326-.233.484.484,0,0,1,.187-.326,2.994,2.994,0,0,0,.513-.653v-.28a11.9,11.9,0,0,0,1.119-1.679q3.078-5.6,4.2-6.435a1.789,1.789,0,0,0,.56-1.306A8.205,8.205,0,0,1,62.672-65q1.119-.933,1.119-1.679h.653l.093-.187a.652.652,0,0,1,.56-.746,1.534,1.534,0,0,1-.466-.093.431.431,0,0,1-.28-.466q0-.093.466-.233a5.411,5.411,0,0,0,1.212-.606,1.628,1.628,0,0,0,.746-1.492v-.56l-.56.746-.187-.187q0-.933,1.306-.933h-.187q0-.373.606-.7a1.394,1.394,0,0,0,.606-1.352q.653,0,4.85-6.249.653-1.119,2.192-3.218a24.51,24.51,0,0,0,1.725-2.518,2.157,2.157,0,0,0,.187-.886l-.187-.187q0,.839-.373.933l-.373-.187a.537.537,0,0,1,.187-.373q1.026-.933,1.026-1.119a3.559,3.559,0,0,0-1.772,1.026,28.052,28.052,0,0,0-4.663,5.875L62.112-66.5q-.653,1.212-1.585,2.7t-1.585,2.7L58.2-59.781Q54.931-53.812,54.931-52.879ZM63.6-51.76l2.238-.56,2.518-1.772q.653,0,6.2-3.684a53.165,53.165,0,0,0,5.642-3.964,1.012,1.012,0,0,1,.187-.373l.373.839a3.6,3.6,0,0,1,1.259-.933q.793-.373.793-.513a.519.519,0,0,1,.047-.233q.047-.093.28-.093a40.811,40.811,0,0,0,4.243-2.425q4.663-2.891,5.782-3.078.56,0,1.725-1.352a21.43,21.43,0,0,0,2.1-2.891,5.216,5.216,0,0,0,.933-2.285q0-.373-.187-.373-.746.28-11.471,6.808-14.083,8.673-14.083,9.606l.187.187q0,.093-.187.093-.839.187-.839.42t-.513.233a2.622,2.622,0,0,0-.793.093,1.243,1.243,0,0,0-.56.466,6.088,6.088,0,0,1-.56.653q-.093,0-.093-.047t-.093-.14q-.093-.093-.093-.14t-.093-.047l-.187.56.187.933a.982.982,0,0,1-.373.839,10.2,10.2,0,0,1-1.026.653,11.779,11.779,0,0,0-2.611,1.958ZM77.5-8.58a.33.33,0,0,0,.373-.373l-.56-.187a.165.165,0,0,0-.187.187A.33.33,0,0,0,77.5-8.58Zm0,1.119.187-.187-.373-.56v.373Q77.314-7.461,77.5-7.461ZM77.687.373V-3.264q-.28-2.891-.56-2.891Q77.127.373,77.687.373Zm2.145,7.834-.839-3.824Q77.967.746,77.687.746l.093,1.119.093.466a15.335,15.335,0,0,0,.7,3.078,14.84,14.84,0,0,1,.606,1.679q.28.373.373.513a.453.453,0,0,1,.093.233.767.767,0,0,0,.047.233Q79.739,8.207,79.832,8.207ZM78.06-5.129l.373-.56.187-.839a.3.3,0,0,0-.28.187l-.466,1.026A.165.165,0,0,0,78.06-5.129Zm2.332,9.886.093-.28a2.067,2.067,0,0,0,.093-.653,1,1,0,0,1-.187-.326q-.093-.233-.187-.233l-.373.187a1.386,1.386,0,0,0,.373,1.026.414.414,0,0,0,.047.187A.149.149,0,0,0,80.392,4.756Zm-.56-2.611V-2.7q0-2.611.466-2.611h.093q.28,0,.373-.653V-8.953q0-2.332.373-2.332T82.3-15.248q.793-3.964.886-4.057a23.041,23.041,0,0,0,.653-4.383l.233-.233a35.635,35.635,0,0,0,1.166-3.964,1.8,1.8,0,0,0,.28-.933A152.776,152.776,0,0,1,98.857-62.392l.839-1.585q-1.585,0-5.5,3.451L91.21-57.916l.28,1.585-.187.093q-.653,0-1.026,2.145a.537.537,0,0,1-.373.187q-.373.653-.746,1.212a4.5,4.5,0,0,0-.373,2.238q-.933,0-.933.746v.093h.093a.453.453,0,0,0,.093.233,4.4,4.4,0,0,0,1.679.14q-2.891.746-2.891,2.8a11.857,11.857,0,0,1-.7,2.1q-.7,1.819-.933,1.865t-.233.42a3.452,3.452,0,0,0,.14,1.073q.14.42.28.746t.326.326v-.746a.33.33,0,0,1,.373-.373.76.76,0,0,1,.187.56,1.906,1.906,0,0,0-.093.606,1.794,1.794,0,0,1-.373.886l-.093.187q-.093,0-.42-.373a.933.933,0,0,0-.7-.373L83-35.066q-.28.839-.56.839a2.73,2.73,0,0,1-.56,1.958l-.187.653q0,.093.187.14a1.4,1.4,0,0,0,.233.047q.047,0,.14.093L81.6-29.657l-.14.42q-.047.14-.14.14l-.093.466a3.613,3.613,0,0,0-.466,1.492l.187.373.933-.187a1.3,1.3,0,0,1-.093.56.716.716,0,0,0-.093.28q-.466,1.119-.886,1.119a1.749,1.749,0,0,0-.793.187q0,.28.093.28l.466-.093q.653,0,.653.233t.093.233a.082.082,0,0,1-.093.093,1.526,1.526,0,0,0-.373.093l-.466.653a6.344,6.344,0,0,1-.606,1.166,1.86,1.86,0,0,0-.14.979q0,1.306-.326,1.446t-.513.233l.187.187q0,.373-.093.373h-.093v.093H78.62l.373,1.119h-.56L78.62-16.6l-.56,1.119h.187l1.212-1.865.187.187a6,6,0,0,1-.933,2.518q-.373.653-.793.653t-.42,2.7l-.187,1.772q.839-1.4,1.306-1.4a.839.839,0,0,0,.28.746q.093.28.56.28a1.147,1.147,0,0,1-.466.187q-.373.093-.373.373l.187.56a1.057,1.057,0,0,1-.28.7,6.411,6.411,0,0,0-.466.606q0,.187.653.56.28.093.28.56L78.62-5.316a3.913,3.913,0,0,0-.56,2.052q0,1.119.373,1.119h.373q.373,0,.373.839,0,.653-.187.746A15.63,15.63,0,0,0,79.832,2.145Zm4.2-13.8.187-.373q.466-.839.7-1.306a8.565,8.565,0,0,0,.513-1.585q1.492-6.435,9.606-30.31,1.119-2.8,3.171-6.808,1.585-3.264,4.57-9.792a46.128,46.128,0,0,0,2.611-5.969,1.485,1.485,0,0,1-.839.466l-.653.28v.187l-.56.373q-.653.466-4.29,8.114l-4.756,9.7-.56,1.492Q84.215-20.518,84.215-13.15a1.008,1.008,0,0,1-.28.746q-.28.28-.28.373ZM98.671-71.812q.373,0,.653-.653t.7-.653a1.025,1.025,0,0,0,.606-.14q.187-.14.187-.793t.093-.653l1.585.373a1.867,1.867,0,0,0,1.492-.653,4.2,4.2,0,0,1,.326-.513,2.619,2.619,0,0,0,.373-.886.942.942,0,0,1,.466-.7,1.411,1.411,0,0,1,.466-.14.751.751,0,0,0,.326-.093.33.33,0,0,1,.373.373,1.234,1.234,0,0,1-.7.187q-.42,0-.42.933l.093.187q.373,0,1.4-1.352a4.063,4.063,0,0,0,1.026-2.1q0-.653-.466-.746l-.187-.187.28-.373q.187,0,.933.933a.165.165,0,0,0,.187-.187q0-.933-.746-.933a4.615,4.615,0,0,0-3.264,1.865,13.119,13.119,0,0,0-1.679,2.565,2.5,2.5,0,0,1-1.026,1.259l-.187-.187.373-.466a5.809,5.809,0,0,0,.746-2.425q-.28,0-1.119,1.119A19.012,19.012,0,0,0,98.671-71.812Zm11.658-6.9a.876.876,0,0,0,.56-.233,2.646,2.646,0,0,0,.42-.42,2.109,2.109,0,0,0,.187-.28.414.414,0,0,0,.047-.187,3.5,3.5,0,0,1-.373.326,5.1,5.1,0,0,1-.513.326A.541.541,0,0,0,110.329-78.713Zm1.4-2.052q.56,0,.56-.746,0-.653-.373-.653l-.373.653Q111.541-80.765,111.728-80.765Zm-6.715-2.891.933-.746v.187a1.075,1.075,0,0,0,.373-.746h-.187l.187-.093.56.093q.653,0,1.026-.839l.187-.373-.187-.187-.373.373v-.373a1.189,1.189,0,0,1,.606-.56,2.459,2.459,0,0,0,.746-.513,1.079,1.079,0,0,0,.326-.793l-.187-.746a.763.763,0,0,1,.093-.42,2.281,2.281,0,0,0,.14-.233.731.731,0,0,1,.14-.187q.093-.093.093-.14t.093-.047v1.026q.28,0,.326-.886a1.987,1.987,0,0,1,.513-1.352.38.38,0,0,0,.28-.093v-.373q.839,0,.979-.233a2.775,2.775,0,0,1,.42-.513q0,.56-3.451,6.622a.165.165,0,0,0,.187.187,20.568,20.568,0,0,0,2.7-1.679q1.119,0,2.332-2.238a5.3,5.3,0,0,1,.653-.886.731.731,0,0,0,.187-.14l-.56-.373a1.337,1.337,0,0,0,.42-.653,1.657,1.657,0,0,1,.14-.466q-.187,0-.746.56a3.268,3.268,0,0,1,.187-1.026,3.047,3.047,0,0,1,.187-.326,1.528,1.528,0,0,1,.187-.233.971.971,0,0,1,.56-.093l-.187-.653q0-.933,3.264-5.129,4.01-5.129,4.01-6.715a.652.652,0,0,0-.56-.746l.187.56a.693.693,0,0,1-.513.187q-.326,0-1.352,1.865a2.245,2.245,0,0,1-1.026.653,2.8,2.8,0,0,1-1.026,1.679q-.653.653-.653,1.026a2.2,2.2,0,0,1-.28.933q-.839,1.679-1.212,1.679-.093,0-.093-.373t-.093-.373l-.839.933.653.466a3.725,3.725,0,0,1-.56,1.492,8.935,8.935,0,0,1-1.352,1.865q-.793.839-1.166.839l-.56-.373-1.4.56,1.4-.373a.9.9,0,0,1-.14.606,1.107,1.107,0,0,1-.7.14q-1.119.28-3.078,4.2a21.9,21.9,0,0,1-1.119,2.052A9.388,9.388,0,0,0,105.013-83.656Zm17.72-22.01.187-.373-.373-.56Q122.546-105.666,122.732-105.666Zm-41.781,8.3a.165.165,0,0,1-.187-.187.818.818,0,0,0,.093-.233.358.358,0,0,1,.047-.14q.047-.093.233-.093l.187.373ZM71.625-78.713l2.052-3.264a3.923,3.923,0,0,1-.886,2.005Q71.9-78.713,71.625-78.713Zm-2.332-7.834-.187-.187q0-.56.233-.606a.641.641,0,0,0,.326-.14Q69.667-86.547,69.293-86.547ZM71.625-84.4l-.28-.373q0-.187.28-.187H72v.187ZM89.718-50.641l-.373-.187-.187-.56.187-.373a.54.54,0,0,1,.373.093v.466l.933-1.306a6.105,6.105,0,0,1-.373,1.492A.752.752,0,0,1,89.718-50.641ZM84.4-35.16l-.373-.56a1.33,1.33,0,0,1,.746-1.119q.373,0,.373.56a1.177,1.177,0,0,1-.28.793Q84.588-35.16,84.4-35.16Zm1.865-6.249h-.187L87.2-45.045l.28.187v-1.026q0-.373.28-.373t.466-.466q.187-.466.373-.466a13.451,13.451,0,0,1-1.119,3.171A18.737,18.737,0,0,1,86.267-41.408Zm21.637-45.7v-.187a.839.839,0,0,1,.326-.653.967.967,0,0,1,.606-.28,1.529,1.529,0,0,0-.187.233,5.479,5.479,0,0,0-.28.513Q108.184-87.106,107.9-87.106ZM79.459-12.777q-.466,0-.466-.373l.839.187Zm1.679-8.953h-.093q-.093,0-.093-.28l.28-.373h.093q.187.093.187.187Q81.511-21.73,81.138-21.73ZM91.956-113.5h-.093v-.373q0-.187.093-.187h.28Q92.236-113.5,91.956-113.5ZM90.837-53.066v-.373q.187-.093.187-1.4a3.647,3.647,0,0,1,.653-.793,3.352,3.352,0,0,1,.746-.7l.187.187q-.28.56-.606,1.166a10.675,10.675,0,0,0-.513,1.073,1.447,1.447,0,0,1-.373.606A2.725,2.725,0,0,0,90.837-53.066Zm1.958-4.01q-.56,0-.56-.187a.752.752,0,0,1,.56-.373q.373,0,.373.187A.33.33,0,0,1,92.8-57.076ZM70.6-77.127l.56-1.212Q70.972-77.127,70.6-77.127Z" transform="translate(129.354 134.11)"/>
</svg>
