<svg xmlns="http://www.w3.org/2000/svg" xmlns:xlink="http://www.w3.org/1999/xlink" width="32" height="32" viewBox="0 0 32 32">
  <defs>
    <clipPath id="clip-path">
      <rect id="Rectangle_2842" data-name="Rectangle 2842" width="32" height="32" transform="translate(19197 4970)" fill="none" stroke="#707070" stroke-width="1"/>
    </clipPath>
  </defs>
  <g id="Mask_Group_5879" data-name="Mask Group 5879" transform="translate(-19197 -4970)" clip-path="url(#clip-path)">
    <g id="delviery_boy" data-name="delviery boy" transform="translate(19200 4974)">
      <path id="Path_615" data-name="Path 615" d="M25.643,124.037a2.6,2.6,0,0,0-.071-1.186c-.769-2.771-3.071-8.445-4.984-10.782a1.39,1.39,0,0,0-2.03,0,1.427,1.427,0,0,0-.413.883,1,1,0,0,0-.551-.262s-4.851-.6-4.91-.6H10.479a.822.822,0,0,0-.929.929v7.083H7.93v-7.6a.682.682,0,0,0-.681-.682H.681A.682.682,0,0,0,0,112.51s0,10.666,0,11.356A1.435,1.435,0,0,0,1.437,125.3H2.845a3.877,3.877,0,1,0,7.53,0h4.339v.951a1.365,1.365,0,0,0,1.363,1.363H16.1a1.353,1.353,0,0,0,1.352-1.366l-.01-.948h1.233a3.877,3.877,0,1,0,6.964-1.264Zm-3.2.725a1.463,1.463,0,1,1-1.464,1.463A1.465,1.465,0,0,1,22.445,124.762ZM8.073,126.225a1.463,1.463,0,1,1-1.463-1.463A1.465,1.465,0,0,1,8.073,126.225Zm9.322-5.91a1.378,1.378,0,0,0-1.374-1.36H13.754v-4.632l1.109.136a.922.922,0,0,0,.9.726h3.882l.3,2.507-2.544,3.33Z" transform="translate(0 -105.648)" fill="#fff"/>
      <path id="Path_616" data-name="Path 616" d="M141.348,20.54a2.727,2.727,0,0,0,2.668-3.284l.6-.012a1.076,1.076,0,0,0,.893-.577l.2-.422a.559.559,0,0,0-.528-.833l-2.534.006a2.726,2.726,0,1,0-1.3,5.123Z" transform="translate(-130.034 -15.088)" fill="#fff"/>
    </g>
  </g>
</svg>
