<svg xmlns="http://www.w3.org/2000/svg" width="15" height="15" viewBox="0 0 15 15">
  <g id="Phone" transform="translate(-156 -273)">
    <g id="local_phone-24px" transform="translate(156 273)">
      <path id="Path_639" data-name="Path 639" d="M0,0H15V15H0Z" fill="none"/>
      <path id="Path_640" data-name="Path 640" d="M5.262,7.869a9.468,9.468,0,0,0,4.119,4.119l1.375-1.375a.621.621,0,0,1,.637-.15,7.129,7.129,0,0,0,2.231.356.627.627,0,0,1,.625.625v2.181a.627.627,0,0,1-.625.625A10.624,10.624,0,0,1,3,3.625.627.627,0,0,1,3.625,3H5.812a.627.627,0,0,1,.625.625,7.1,7.1,0,0,0,.356,2.231.627.627,0,0,1-.156.638Z" transform="translate(-1.125 -1.125)" fill="#848484"/>
    </g>
  </g>
</svg>
