<svg xmlns="http://www.w3.org/2000/svg" xmlns:xlink="http://www.w3.org/1999/xlink" width="24" height="24" viewBox="0 0 24 24">
  <defs>
    <clipPath id="clip-path">
      <rect id="Rectangle_2511" data-name="Rectangle 2511" width="24" height="24" transform="translate(19 208)" fill="none" stroke="#707070" stroke-width="1"/>
    </clipPath>
  </defs>
  <g id="Mask_Group_4746" data-name="Mask Group 4746" transform="translate(-19 -208)" clip-path="url(#clip-path)">
    <g id="Box" transform="translate(1.836 175.31)">
      <g id="Group_7641" data-name="Group 7641" transform="translate(20 36)">
        <path id="Path_8233" data-name="Path 8233" d="M36.777,40.66H21.553A1.553,1.553,0,0,1,20,39.107,3.107,3.107,0,0,1,23.107,36H35.223a3.107,3.107,0,0,1,3.107,3.107A1.553,1.553,0,0,1,36.777,40.66Z" transform="translate(-20 -36)" fill="none" stroke="#9e9e9e" stroke-linecap="round" stroke-linejoin="round" stroke-width="1.5"/>
        <path id="Path_8234" data-name="Path 8234" d="M75.223,159.107v6.214a3.107,3.107,0,0,1-3.107,3.107h-9.01A3.107,3.107,0,0,1,60,165.32V156" transform="translate(-58.447 -151.34)" fill="none" stroke="#9e9e9e" stroke-linecap="round" stroke-linejoin="round" stroke-width="1.5"/>
      </g>
      <path id="Path_8235" data-name="Path 8235" d="M184.35,239.107h-2.8a1.553,1.553,0,0,1,0-3.107h2.8a1.553,1.553,0,0,1,0,3.107Z" transform="translate(-153.786 -192.233)" fill="none" stroke="#9e9e9e" stroke-linecap="round" stroke-linejoin="round" stroke-width="1.5"/>
    </g>
  </g>
</svg>
