<svg xmlns="http://www.w3.org/2000/svg" xmlns:xlink="http://www.w3.org/1999/xlink" width="24" height="24" viewBox="0 0 24 24">
  <defs>
    <clipPath id="clip-path">
      <rect id="Rectangle_2511" data-name="Rectangle 2511" width="24" height="24" transform="translate(19 112)" fill="none" stroke="#707070" stroke-width="1"/>
    </clipPath>
  </defs>
  <g id="Mask_Group_4743" data-name="Mask Group 4743" transform="translate(-19 -112)" clip-path="url(#clip-path)">
    <g id="Newspaper" transform="translate(1.417 59.879)">
      <g id="Group_6111" data-name="Group 6111" transform="translate(20 56)">
        <path id="Path_7307" data-name="Path 7307" d="M26.5,62.5H24.874a1.625,1.625,0,0,0-1.625,1.625v6.5a1.625,1.625,0,0,0,3.25,0V59.25a3.25,3.25,0,1,0-6.5,0v8.124A1.625,1.625,0,0,0,21.625,69H23.25" transform="translate(-20 -56)" fill="none" stroke="#9e9e9e" stroke-linecap="round" stroke-linejoin="round" stroke-width="1.5"/>
        <path id="Path_7308" data-name="Path 7308" d="M100,56h12.668a3.25,3.25,0,0,1,3.25,3.25V70.623a1.625,1.625,0,0,1-1.625,1.625H101.641" transform="translate(-96.752 -56)" fill="none" stroke="#9e9e9e" stroke-linecap="round" stroke-linejoin="round" stroke-width="1.5"/>
        <path id="Path_7309" data-name="Path 7309" d="M261.625,142.5A1.625,1.625,0,0,1,260,140.874v-3.25A1.625,1.625,0,0,1,261.625,136h2.923a1.625,1.625,0,0,1,1.625,1.625v3.25a1.625,1.625,0,0,1-1.625,1.625Z" transform="translate(-250.255 -132.752)" fill="none" stroke="#9e9e9e" stroke-linecap="round" stroke-linejoin="round" stroke-width="1.5"/>
      </g>
      <line id="Line_516" data-name="Line 516" x2="5.989" transform="translate(29.881 68.911)" fill="none" stroke="#9e9e9e" stroke-linecap="round" stroke-linejoin="round" stroke-width="1.5"/>
    </g>
  </g>
</svg>
