<svg xmlns="http://www.w3.org/2000/svg" xmlns:xlink="http://www.w3.org/1999/xlink" width="24" height="24" viewBox="0 0 24 24">
  <defs>
    <clipPath id="clip-path">
      <rect id="Rectangle_2511" data-name="Rectangle 2511" width="24" height="24" transform="translate(19 176)" fill="none" stroke="#707070" stroke-width="1"/>
    </clipPath>
  </defs>
  <g id="Mask_Group_4745" data-name="Mask Group 4745" transform="translate(-19 -176)" clip-path="url(#clip-path)">
    <g id="Group_6113" data-name="Group 6113" transform="translate(182.319 819.32)">
      <g id="Add" transform="translate(-160.708 -640.854)">
        <path id="Path_7313" data-name="Path 7313" d="M25.886,33.627H23.1A3.1,3.1,0,0,1,20,30.532V23.1A3.1,3.1,0,0,1,23.1,20h7.435a3.1,3.1,0,0,1,3.095,3.1v2.788" transform="translate(-20 -20)" fill="none" stroke="#9e9e9e" stroke-linecap="round" stroke-linejoin="round" stroke-width="1.5"/>
        <circle id="Ellipse_321" data-name="Ellipse 321" cx="4.781" cy="4.781" r="4.781" transform="translate(9.214 9.214)" fill="none" stroke="#9e9e9e" stroke-linecap="round" stroke-linejoin="round" stroke-width="1.5"/>
        <path id="Path_7314" data-name="Path 7314" d="M140.649,100v1.554a1.554,1.554,0,0,1-1.554,1.554h-1.554a1.554,1.554,0,0,1-1.554-1.554V100" transform="translate(-131.51 -96.903)" fill="none" stroke="#9e9e9e" stroke-linecap="round" stroke-linejoin="round" stroke-width="1.5"/>
      </g>
      <path id="Path_7320" data-name="Path 7320" d="M-150.937-629.445l1.167,1.167,2.152-2.152" transform="translate(2.625 2.502)" fill="none" stroke="#9e9e9e" stroke-linecap="round" stroke-linejoin="round" stroke-width="1.5"/>
    </g>
  </g>
</svg>
