<svg id="Group_4432" data-name="Group 4432" xmlns="http://www.w3.org/2000/svg" width="27.838" height="27.838" viewBox="0 0 27.838 27.838">
  <circle id="Ellipse_22" data-name="Ellipse 22" cx="13.919" cy="13.919" r="13.919" transform="translate(0 0)" fill="#0a64f9"/>
  <path id="Path_3593" data-name="Path 3593" d="M14.971,11.713a8.053,8.053,0,0,1-2.484-.394.688.688,0,0,0-.711.169l-1.1,1.386A10.686,10.686,0,0,1,5.822,8.067L7.195,6.9a.718.718,0,0,0,.169-.718A7.849,7.849,0,0,1,6.969,3.7a.7.7,0,0,0-.7-.7H3.837C3.457,3,3,3.169,3,3.7A12.071,12.071,0,0,0,14.971,15.668a.738.738,0,0,0,.7-.83V12.409A.7.7,0,0,0,14.971,11.713Z" transform="translate(4.709 5.086)" fill="#fff"/>
</svg>
