<svg xmlns="http://www.w3.org/2000/svg" xmlns:xlink="http://www.w3.org/1999/xlink" width="104" height="104" viewBox="0 0 104 104">
  <defs>
    <clipPath id="clip-path">
      <path id="path1875" d="M0-682.665H46.436v46.436H0Z" transform="translate(0 682.665)" fill="#0a64f9"/>
    </clipPath>
  </defs>
  <g id="Group_5989" data-name="Group 5989" transform="translate(-908 -401)">
    <circle id="Ellipse_329" data-name="Ellipse 329" cx="52" cy="52" r="52" transform="translate(908 401)" fill="#e8f1ff"/>
    <g id="g1869" transform="translate(936.897 430.781)">
      <g id="g1871">
        <g id="g1873" clip-path="url(#clip-path)">
          <g id="g1879" transform="translate(5.442 9.07)">
            <path id="path1881" d="M0,0V6.893" fill="none" stroke="#0a64f9" stroke-linecap="round" stroke-linejoin="round" stroke-width="3.5"/>
          </g>
          <g id="g1883" transform="translate(5.442 30.383)">
            <path id="path1885" d="M0-95.683v-6.984" transform="translate(0 102.666)" fill="none" stroke="#0a64f9" stroke-linecap="round" stroke-linejoin="round" stroke-width="3.5"/>
          </g>
          <g id="g1887" transform="translate(9.07 5.442)">
            <path id="path1889" d="M0,0H6.984" fill="none" stroke="#0a64f9" stroke-linecap="round" stroke-linejoin="round" stroke-width="3.5"/>
          </g>
          <g id="g1891" transform="translate(1.814 1.814)">
            <path id="path1893" d="M-49.705,0a3.628,3.628,0,0,0-3.628,3.628,3.628,3.628,0,0,0,3.628,3.628,3.628,3.628,0,0,0,3.628-3.628A3.628,3.628,0,0,0-49.705,0Z" transform="translate(53.333)" fill="none" stroke="#0a64f9" stroke-linecap="round" stroke-linejoin="round" stroke-width="3.5"/>
          </g>
          <g id="g1895" transform="translate(37.366 1.814)">
            <path id="path1897" d="M-49.705,0a3.628,3.628,0,0,0-3.628,3.628,3.628,3.628,0,0,0,3.628,3.628,3.628,3.628,0,0,0,3.628-3.628A3.628,3.628,0,0,0-49.705,0Z" transform="translate(53.333)" fill="none" stroke="#0a64f9" stroke-linecap="round" stroke-linejoin="round" stroke-width="3.5"/>
          </g>
          <g id="g1899" transform="translate(1.814 37.366)">
            <path id="path1901" d="M-49.705,0a3.628,3.628,0,0,0-3.628,3.628,3.628,3.628,0,0,0,3.628,3.628,3.628,3.628,0,0,0,3.628-3.628A3.628,3.628,0,0,0-49.705,0Z" transform="translate(53.333 0)" fill="none" stroke="#0a64f9" stroke-linecap="round" stroke-linejoin="round" stroke-width="3.5"/>
          </g>
          <g id="g1903" transform="translate(30.292 5.442)">
            <path id="path1905" d="M-96.926,0H-104" transform="translate(104)" fill="none" stroke="#0a64f9" stroke-linecap="round" stroke-linejoin="round" stroke-width="3.5"/>
          </g>
          <g id="g1907" transform="translate(40.994 9.07)">
            <path id="path1909" d="M0,0V6.893" fill="none" stroke="#0a64f9" stroke-linecap="round" stroke-linejoin="round" stroke-width="3.5"/>
          </g>
          <g id="g1911" transform="translate(37.366 37.366)">
            <path id="path1913" d="M-99.411-49.705a3.628,3.628,0,0,0-3.628-3.628,3.628,3.628,0,0,0-3.628,3.628,3.628,3.628,0,0,0,3.628,3.628A3.628,3.628,0,0,0-99.411-49.705Z" transform="translate(106.666 53.333)" fill="none" stroke="#0a64f9" stroke-linecap="round" stroke-linejoin="round" stroke-width="3.5"/>
          </g>
          <g id="g1915" transform="translate(40.994 30.292)">
            <path id="path1917" d="M0-96.926V-104" transform="translate(0 104)" fill="none" stroke="#0a64f9" stroke-linecap="round" stroke-linejoin="round" stroke-width="3.5"/>
          </g>
          <g id="g1919" transform="translate(30.474 40.994)">
            <path id="path1921" d="M-94.44,0h-6.893" transform="translate(101.333)" fill="none" stroke="#0a64f9" stroke-linecap="round" stroke-linejoin="round" stroke-width="3.5"/>
          </g>
          <g id="g1923" transform="translate(9.07 40.994)">
            <path id="path1925" d="M0,0H6.984" fill="none" stroke="#0a64f9" stroke-linecap="round" stroke-linejoin="round" stroke-width="3.5"/>
          </g>
          <g id="g1927" transform="translate(20.86 3.174)">
            <path id="path1929" d="M-31.066,0a2.267,2.267,0,0,0-2.267,2.267,2.267,2.267,0,0,0,2.267,2.267A2.267,2.267,0,0,0-28.8,2.267,2.267,2.267,0,0,0-31.066,0" transform="translate(33.333)" fill="#0a64f9"/>
          </g>
          <g id="g1931" transform="translate(20.86 38.727)">
            <path id="path1933" d="M-31.066,0a2.267,2.267,0,0,0-2.267,2.267,2.267,2.267,0,0,0,2.267,2.267A2.267,2.267,0,0,0-28.8,2.267,2.267,2.267,0,0,0-31.066,0" transform="translate(33.333)" fill="#0a64f9"/>
          </g>
          <g id="g1935" transform="translate(38.727 21.132)">
            <path id="path1937" d="M-31.066,0a2.267,2.267,0,0,0-2.267,2.267,2.267,2.267,0,0,0,2.267,2.267A2.267,2.267,0,0,0-28.8,2.267,2.267,2.267,0,0,0-31.066,0" transform="translate(33.333)" fill="#0a64f9"/>
          </g>
          <g id="g1939" transform="translate(3.174 21.132)">
            <path id="path1941" d="M-31.066,0a2.267,2.267,0,0,0-2.267,2.267,2.267,2.267,0,0,0,2.267,2.267A2.267,2.267,0,0,0-28.8,2.267,2.267,2.267,0,0,0-31.066,0" transform="translate(33.333)" fill="#0a64f9"/>
          </g>
          <g id="g1943" transform="translate(16.779 16.597)">
            <path id="path1945" d="M-176.454-183.91l-3.984-11.628a2.654,2.654,0,0,0-5.029.021l-3.866,11.607" transform="translate(189.333 197.333)" fill="none" stroke="#0a64f9" stroke-linecap="round" stroke-linejoin="round" stroke-width="3.5"/>
          </g>
          <g id="g1947" transform="translate(19.227 26.392)">
            <path id="path1949" d="M0,0H7.709" fill="none" stroke="#0a64f9" stroke-linecap="round" stroke-linejoin="round" stroke-width="3.5"/>
          </g>
        </g>
      </g>
    </g>
  </g>
</svg>
