<svg xmlns="http://www.w3.org/2000/svg" width="104" height="104" viewBox="0 0 104 104">
  <g id="Group_5989" data-name="Group 5989" transform="translate(-908 -401)">
    <circle id="Ellipse_329" data-name="Ellipse 329" cx="52" cy="52" r="52" transform="translate(908 401)" fill="#e8f1ff"/>
    <g id="Calendar_53_" transform="translate(919.333 396.77)">
      <line id="Line_358" data-name="Line 358" transform="translate(54.667 53.23)" fill="none" stroke="#0a64f9" stroke-linecap="round" stroke-linejoin="round" stroke-width="3.5"/>
      <line id="Line_359" data-name="Line 359" transform="translate(47.667 53.23)" fill="none" stroke="#0a64f9" stroke-linecap="round" stroke-linejoin="round" stroke-width="3.5"/>
      <line id="Line_360" data-name="Line 360" transform="translate(47.667 60.23)" fill="none" stroke="#0a64f9" stroke-linecap="round" stroke-linejoin="round" stroke-width="3.5"/>
      <line id="Line_361" data-name="Line 361" transform="translate(54.667 60.23)" fill="none" stroke="#0a64f9" stroke-linecap="round" stroke-linejoin="round" stroke-width="3.5"/>
      <line id="Line_362" data-name="Line 362" transform="translate(47.667 67.23)" fill="none" stroke="#0a64f9" stroke-linecap="round" stroke-linejoin="round" stroke-width="3.5"/>
      <line id="Line_363" data-name="Line 363" transform="translate(54.667 67.23)" fill="none" stroke="#0a64f9" stroke-linecap="round" stroke-linejoin="round" stroke-width="3.5"/>
      <path id="Path_7147" data-name="Path 7147" d="M54.328,76H56.08a5.254,5.254,0,0,1,5.254,5.254v24.52a5.254,5.254,0,0,1-5.254,5.254H25.254A5.254,5.254,0,0,1,20,105.774V81.254A5.254,5.254,0,0,1,25.254,76H47.322" transform="translate(0 -36.568)" fill="none" stroke="#0a64f9" stroke-linecap="round" stroke-linejoin="round" stroke-width="3.5"/>
      <line id="Line_364" data-name="Line 364" y2="8" transform="translate(26.667 35.23)" fill="none" stroke="#0a64f9" stroke-linecap="round" stroke-linejoin="round" stroke-width="3.5"/>
      <line id="Line_365" data-name="Line 365" y2="8" transform="translate(40.667 35.23)" fill="none" stroke="#0a64f9" stroke-linecap="round" stroke-linejoin="round" stroke-width="3.5"/>
      <line id="Line_366" data-name="Line 366" y2="8" transform="translate(54.667 35.23)" fill="none" stroke="#0a64f9" stroke-linecap="round" stroke-linejoin="round" stroke-width="3.5"/>
      <path id="Path_7148" data-name="Path 7148" d="M106.509,250.012H99.5a3.5,3.5,0,0,1-3.5-3.5V239.5a3.5,3.5,0,0,1,3.5-3.5h7.006a3.5,3.5,0,0,1,3.5,3.5v7.006A3.5,3.5,0,0,1,106.509,250.012Z" transform="translate(-69.345 -182.556)" fill="none" stroke="#0a64f9" stroke-linecap="round" stroke-linejoin="round" stroke-width="3.5"/>
    </g>
  </g>
</svg>
