<svg xmlns="http://www.w3.org/2000/svg" width="104" height="104" viewBox="0 0 104 104">
  <g id="Group_6022" data-name="Group 6022" transform="translate(-908 -401)">
    <circle id="Ellipse_329" data-name="Ellipse 329" cx="52" cy="52" r="52" transform="translate(908 401)" fill="#e8f1ff"/>
    <g id="Group_7792" data-name="Group 7792" transform="translate(937 440.01)">
      <g id="g411" transform="translate(0)">
        <g id="g413">
          <g id="Group_7787" data-name="Group 7787">
            <g id="g421" transform="translate(0 0)">
              <path id="path423" d="M8.074,23.388H3.9a3.9,3.9,0,0,1-3.9-3.9V3.9A3.9,3.9,0,0,1,3.9,0H8.076" fill="none" stroke="#0a64f9" stroke-linecap="round" stroke-linejoin="round" stroke-width="3.5"/>
            </g>
            <g id="g425" transform="translate(15.203)">
              <path id="path427" d="M21.051,0H3.885A3.9,3.9,0,0,0,0,3.9V19.489a3.9,3.9,0,0,0,3.9,3.9,3.9,3.9,0,0,1,3.9,3.9v11.7h3.9a3.9,3.9,0,0,0,3.9-3.9v-7.8a3.9,3.9,0,0,1,3.9-3.9h5.456a5.851,5.851,0,0,0,5.55-7.7L26.607,4A5.851,5.851,0,0,0,21.051,0Z" fill="none" stroke="#0a64f9" stroke-linecap="round" stroke-linejoin="round" stroke-width="3.5"/>
            </g>
            <g id="g429" transform="translate(5.462 5.848)">
              <path id="path431" d="M3.9,1.948A1.948,1.948,0,1,1,1.949,0,1.948,1.948,0,0,1,3.9,1.948" transform="translate(-0.001)" fill="#0a64f9"/>
            </g>
          </g>
        </g>
      </g>
    </g>
  </g>
</svg>
