<svg xmlns="http://www.w3.org/2000/svg" width="104" height="104" viewBox="0 0 104 104">
  <g id="Group_6016" data-name="Group 6016" transform="translate(-908 -401)">
    <circle id="Ellipse_329" data-name="Ellipse 329" cx="52" cy="52" r="52" transform="translate(908 401)" fill="#e8f1ff"/>
    <g id="Group_7792" data-name="Group 7792" transform="translate(-362.961 44.323)">
      <g id="g411" transform="translate(1299.961 388.687)">
        <g id="g413">
          <g id="Group_7787" data-name="Group 7787">
            <g id="g421" transform="translate(0 15.592)">
              <path id="path423" d="M8.074,0H3.9A3.9,3.9,0,0,0,0,3.9V19.491a3.9,3.9,0,0,0,3.9,3.9H8.076" fill="none" stroke="#0a64f9" stroke-linecap="round" stroke-linejoin="round" stroke-width="3.5"/>
            </g>
            <g id="g425" transform="translate(15.203)">
              <path id="path427" d="M21.051,38.98H3.885A3.9,3.9,0,0,1,0,35.083V19.491a3.9,3.9,0,0,1,3.9-3.9,3.9,3.9,0,0,0,3.9-3.9V0h3.9a3.9,3.9,0,0,1,3.9,3.9v7.8a3.9,3.9,0,0,0,3.9,3.9h5.456a5.851,5.851,0,0,1,5.55,7.7L26.607,34.983A5.851,5.851,0,0,1,21.051,38.98Z" fill="none" stroke="#0a64f9" stroke-linecap="round" stroke-linejoin="round" stroke-width="3.5"/>
            </g>
            <g id="g429" transform="translate(5.461 29.236)">
              <path id="path431" d="M3.9,1.948A1.948,1.948,0,1,0,1.949,3.9,1.948,1.948,0,0,0,3.9,1.948" transform="translate(-0.001)" fill="#0a64f9"/>
            </g>
          </g>
        </g>
      </g>
    </g>
  </g>
</svg>
