<svg xmlns="http://www.w3.org/2000/svg" width="104" height="104" viewBox="0 0 104 104">
  <g id="Group_5989" data-name="Group 5989" transform="translate(-908 -401)">
    <circle id="Ellipse_329" data-name="Ellipse 329" cx="52" cy="52" r="52" transform="translate(908 401)" fill="#e8f1ff"/>
    <g id="To_Do_List_1_" transform="translate(942.332 431.879)">
      <path id="Path_7139" data-name="Path 7139" d="M80.734,52H87.8a3.534,3.534,0,0,1,3.533,3.533v31.8A3.534,3.534,0,0,1,87.8,90.868H59.533A3.534,3.534,0,0,1,56,87.335v-31.8A3.534,3.534,0,0,1,59.533,52H73.667" transform="translate(-56 -49.092)" fill="none" stroke="#0a64f9" stroke-linecap="round" stroke-linejoin="round" stroke-width="3.5"/>
      <path id="Path_7140" data-name="Path 7140" d="M136,133.767l1.767,1.767L141.3,132" transform="translate(-128.933 -122.026)" fill="none" stroke="#0a64f9" stroke-linecap="round" stroke-linejoin="round" stroke-width="3.5"/>
      <path id="Path_7141" data-name="Path 7141" d="M136,253.767l1.767,1.767L141.3,252" transform="translate(-128.933 -231.425)" fill="none" stroke="#0a64f9" stroke-linecap="round" stroke-linejoin="round" stroke-width="3.5"/>
      <path id="Path_7142" data-name="Path 7142" d="M136,373.767l1.767,1.767L141.3,372" transform="translate(-128.933 -340.825)" fill="none" stroke="#0a64f9" stroke-linecap="round" stroke-linejoin="round" stroke-width="3.5"/>
      <line id="Line_352" data-name="Line 352" y1="6" transform="translate(17.668 0.121)" fill="none" stroke="#0a64f9" stroke-linecap="round" stroke-linejoin="round" stroke-width="3.5"/>
      <line id="Line_353" data-name="Line 353" x2="11" transform="translate(17.668 14.121)" fill="none" stroke="#0a64f9" stroke-linecap="round" stroke-linejoin="round" stroke-width="3.5"/>
      <line id="Line_354" data-name="Line 354" x2="11" transform="translate(17.668 24.121)" fill="none" stroke="#0a64f9" stroke-linecap="round" stroke-linejoin="round" stroke-width="3.5"/>
      <line id="Line_355" data-name="Line 355" x2="11" transform="translate(17.668 34.121)" fill="none" stroke="#0a64f9" stroke-linecap="round" stroke-linejoin="round" stroke-width="3.5"/>
    </g>
  </g>
</svg>
