<svg xmlns="http://www.w3.org/2000/svg" width="30" height="30" viewBox="0 0 30 30">
  <g id="Group_7191" data-name="Group 7191" transform="translate(-1500 -311)">
    <rect id="Rectangle_3398" data-name="Rectangle 3398" width="30" height="30" rx="6" transform="translate(1500 311)" fill="#f2f2f2"/>
    <g id="Group_72" data-name="Group 72" transform="translate(1508 319)">
      <g id="Group_73" data-name="Group 73" transform="translate(-0.001 0)">
        <path id="Path_67" data-name="Path 67" d="M9.161,0A2.757,2.757,0,0,1,11.2,4.694Q9.395,6.509,7.581,8.317A5.667,5.667,0,0,1,4.47,9.9c-.607.108-1.21.237-1.815.356a.753.753,0,0,1-.915-.925c.164-.814.312-1.631.5-2.439a4.928,4.928,0,0,1,1.31-2.346Q5.443,2.627,7.359.735A2.6,2.6,0,0,1,9.161,0M3.452,8.554c.243-.047.458-.094.675-.129a4.207,4.207,0,0,0,2.366-1.16q1.8-1.807,3.607-3.609A1.246,1.246,0,1,0,8.341,1.891C7.135,3.09,5.941,4.3,4.73,5.5A4.968,4.968,0,0,0,3.452,8.554" transform="translate(-0.47 0)"/>
        <path id="Path_68" data-name="Path 68" d="M6.5,17.744q-2.834,0-5.667,0a.745.745,0,0,1-.8-.552.744.744,0,0,1,.67-.956c.05,0,.1,0,.151,0H12.166a.761.761,0,0,1,.763.448.748.748,0,0,1-.691,1.063c-.881.007-1.763,0-2.645,0H6.5" transform="translate(0.001 -4.441)" fill="#0a64f9"/>
      </g>
    </g>
  </g>
</svg>
