<svg id="phone_in_talk_black_24dp_1_" data-name="phone_in_talk_black_24dp (1)" xmlns="http://www.w3.org/2000/svg" width="20" height="20" viewBox="0 0 20 20">
  <path id="Path_49" data-name="Path 49" d="M0,0H20V20H0Z" fill="none"/>
  <path id="Path_50" data-name="Path 50" d="M17.167,13.417a9.467,9.467,0,0,1-2.975-.475.85.85,0,0,0-.85.2l-1.833,1.833A12.538,12.538,0,0,1,6.017,9.483L7.85,7.642a.8.8,0,0,0,.208-.833,9.467,9.467,0,0,1-.475-2.975A.836.836,0,0,0,6.75,3H3.833A.836.836,0,0,0,3,3.833,14.165,14.165,0,0,0,17.167,18,.836.836,0,0,0,18,17.167V14.25A.836.836,0,0,0,17.167,13.417ZM16.333,10.5H18A7.5,7.5,0,0,0,10.5,3V4.667A5.829,5.829,0,0,1,16.333,10.5ZM13,10.5h1.667A4.168,4.168,0,0,0,10.5,6.333V8A2.5,2.5,0,0,1,13,10.5Z" transform="translate(-0.5 -0.5)" fill="#afafaf"/>
</svg>
