<svg xmlns="http://www.w3.org/2000/svg" xmlns:xlink="http://www.w3.org/1999/xlink" width="24" height="24" viewBox="0 0 24 24">
  <defs>
    <clipPath id="clip-path">
      <rect id="Rectangle_4163" data-name="Rectangle 4163" width="24" height="24" transform="translate(1211 21)" fill="none" stroke="#707070" stroke-width="1"/>
    </clipPath>
  </defs>
  <g id="Mask_Group_4784" data-name="Mask Group 4784" transform="translate(-1211 -21)" clip-path="url(#clip-path)">
    <g id="g969" transform="translate(1215.5 708.164)">
      <g id="g971" transform="translate(-1.485 -684.15)">
        <g id="Group_7778" data-name="Group 7778" transform="translate(0.586 0.586)">
          <g id="g979">
            <path id="path981" d="M0-306.266a8.4,8.4,0,0,0,8.4,8.4,8.4,8.4,0,0,0,8.4-8.4,8.4,8.4,0,0,0-8.4-8.4A8.4,8.4,0,0,0,0-306.266Z" transform="translate(0 314.666)" fill="none" stroke="#000" stroke-linecap="round" stroke-linejoin="round" stroke-width="1.3"/>
          </g>
          <g id="g983" transform="translate(5.659 2.954)">
            <path id="path985" d="M-197.256-98.628a2.705,2.705,0,0,1-2.705,2.705,2.705,2.705,0,0,1-2.705-2.705,2.705,2.705,0,0,1,2.705-2.705A2.705,2.705,0,0,1-197.256-98.628Z" transform="translate(202.666 101.333)" fill="none" stroke="#0a64f9" stroke-linecap="round" stroke-linejoin="round" stroke-width="1.3"/>
          </g>
          <g id="g987" transform="translate(4.519 10.998)">
            <path id="path989" d="M-288.2-60.994a4.551,4.551,0,0,0-3.53-1.673h-.845a4.552,4.552,0,0,0-3.53,1.673" transform="translate(296.103 62.667)" fill="none" stroke="#0a64f9" stroke-linecap="round" stroke-linejoin="round" stroke-width="1.3"/>
          </g>
        </g>
      </g>
    </g>
  </g>
</svg>
